<svg xmlns="http://www.w3.org/2000/svg" xmlns:xlink="http://www.w3.org/1999/xlink" width="200" zoomAndPan="magnify" viewBox="0 0 150 74.999997" height="100" preserveAspectRatio="xMidYMid meet" version="1.0"><defs><g/><clipPath id="d5f1943097"><path d="M 101.765625 11.164062 L 149.765625 11.164062 L 149.765625 50.164062 L 101.765625 50.164062 Z M 101.765625 11.164062 " clip-rule="nonzero"/></clipPath></defs><g clip-path="url(#d5f1943097)"><path fill="#000000" d="M 119.769531 11.164062 C 120.472656 11.320312 121.058594 11.71875 121.664062 12.078125 C 123.226562 13 124.789062 13.90625 126.355469 14.8125 C 127.371094 15.398438 128.339844 16.046875 129.257812 16.78125 C 129.683594 17.125 130.210938 17.375 130.726562 17.570312 C 134.1875 18.867188 137.71875 19.941406 141.296875 20.871094 C 142.378906 21.152344 143.46875 21.414062 144.550781 21.695312 C 144.738281 21.742188 144.921875 21.820312 145.097656 21.902344 C 145.378906 22.03125 145.566406 22.230469 145.589844 22.570312 C 145.59375 22.671875 145.707031 22.796875 145.804688 22.855469 C 145.964844 22.949219 146.152344 22.992188 146.324219 23.058594 C 146.515625 23.128906 146.707031 23.195312 146.890625 23.28125 C 147.355469 23.496094 147.375 23.5625 147.164062 24.019531 C 146.996094 24.390625 146.996094 24.390625 147.289062 24.671875 C 147.734375 25.101562 148.183594 25.527344 148.632812 25.949219 C 148.691406 26.003906 148.765625 26.039062 148.832031 26.082031 C 148.820312 26.117188 148.808594 26.148438 148.796875 26.183594 C 148.355469 26.296875 147.914062 26.410156 147.445312 26.535156 C 147.488281 26.652344 147.535156 26.78125 147.582031 26.90625 C 147.703125 27.21875 147.664062 27.378906 147.359375 27.527344 C 147.003906 27.703125 146.628906 27.839844 146.261719 27.992188 C 146.171875 28.027344 146.082031 28.0625 145.957031 28.113281 C 146.035156 28.148438 146.085938 28.175781 146.136719 28.195312 C 147.246094 28.617188 148.246094 29.234375 149.191406 29.949219 C 149.6875 30.324219 149.75 30.734375 149.429688 31.265625 C 149.417969 31.289062 149.40625 31.308594 149.386719 31.328125 C 149.144531 31.597656 149.113281 31.835938 149.375 32.148438 C 149.691406 32.535156 149.585938 32.996094 149.183594 33.300781 C 149.085938 33.375 148.988281 33.441406 148.882812 33.519531 C 149.152344 33.882812 149.414062 34.230469 149.675781 34.578125 C 149.675781 34.609375 149.675781 34.640625 149.675781 34.675781 C 148.621094 35.136719 147.609375 35.679688 146.632812 36.296875 C 145.109375 37.253906 143.972656 38.570312 143.027344 40.070312 C 142.570312 40.800781 142.125 41.535156 141.667969 42.265625 C 141.175781 43.058594 140.605469 43.785156 139.910156 44.410156 C 138.699219 45.5 137.648438 46.738281 136.578125 47.960938 C 135.910156 48.722656 135.199219 49.4375 134.367188 50.011719 C 134.210938 50.117188 133.984375 50.15625 133.792969 50.15625 C 132.476562 50.164062 131.199219 49.964844 130.007812 49.382812 C 129.445312 49.109375 128.890625 48.820312 128.351562 48.503906 C 127.191406 47.828125 125.976562 47.28125 124.722656 46.796875 C 123.464844 46.3125 122.230469 45.769531 121.007812 45.203125 C 119.261719 44.390625 117.46875 43.707031 115.609375 43.195312 C 113.3125 42.5625 111.09375 41.707031 108.855469 40.90625 C 107.632812 40.472656 106.382812 40.113281 105.160156 39.6875 C 104.324219 39.398438 103.566406 38.957031 102.933594 38.324219 C 102.085938 37.484375 101.777344 36.46875 101.886719 35.304688 C 102.019531 33.925781 102.484375 32.640625 103.027344 31.390625 C 104.179688 28.742188 105.355469 26.105469 106.550781 23.476562 C 107.949219 20.394531 109.300781 17.292969 110.320312 14.058594 C 110.535156 13.378906 110.910156 12.746094 111.234375 12.101562 C 111.324219 11.917969 111.480469 11.757812 111.625 11.605469 C 111.789062 11.4375 111.972656 11.351562 112.207031 11.507812 C 112.304688 11.570312 112.441406 11.582031 112.5625 11.585938 C 113.636719 11.621094 114.625 12 115.613281 12.363281 C 116.039062 12.519531 116.476562 12.65625 116.910156 12.789062 C 117.398438 12.9375 117.804688 12.8125 118.125 12.40625 C 118.269531 12.222656 118.421875 12.042969 118.574219 11.863281 C 118.859375 11.53125 119.167969 11.238281 119.625 11.164062 C 119.671875 11.164062 119.722656 11.164062 119.769531 11.164062 Z M 132.691406 49.75 C 132.691406 49.609375 132.699219 49.496094 132.691406 49.382812 C 132.671875 48.933594 132.761719 48.507812 132.949219 48.105469 C 133.546875 46.820312 134.15625 45.542969 134.753906 44.257812 C 135.167969 43.371094 135.554688 42.472656 135.972656 41.585938 C 136.316406 40.855469 136.492188 40.078125 136.605469 39.292969 C 136.816406 37.777344 137.417969 36.433594 138.265625 35.175781 C 139.234375 33.742188 140.054688 32.21875 140.855469 30.683594 C 141.683594 29.09375 142.546875 27.519531 143.402344 25.945312 C 143.769531 25.265625 144.175781 24.609375 144.519531 23.917969 C 144.699219 23.554688 144.792969 23.144531 144.910156 22.75 C 144.988281 22.472656 144.859375 22.265625 144.605469 22.160156 C 144.277344 22.027344 143.941406 21.894531 143.601562 21.800781 C 141.542969 21.242188 139.472656 20.710938 137.417969 20.132812 C 134.441406 19.292969 131.515625 18.292969 128.636719 17.164062 C 125.703125 16.015625 122.777344 14.859375 119.761719 13.9375 C 118.0625 13.421875 116.367188 12.894531 114.664062 12.378906 C 113.992188 12.175781 113.308594 11.996094 112.628906 11.820312 C 112.335938 11.746094 112.121094 11.867188 111.949219 12.121094 C 111.453125 12.835938 111.117188 13.625 110.835938 14.441406 C 110.074219 16.660156 109.296875 18.871094 108.324219 21.007812 C 106.984375 23.9375 105.648438 26.871094 104.34375 29.816406 C 103.628906 31.425781 102.976562 33.0625 102.523438 34.769531 C 102.242188 35.832031 102.25 36.863281 102.890625 37.8125 C 103.378906 38.527344 104.050781 39.019531 104.855469 39.308594 C 106.125 39.757812 107.40625 40.175781 108.683594 40.605469 C 110.8125 41.324219 112.933594 42.070312 115.074219 42.746094 C 116.722656 43.269531 118.351562 43.835938 119.941406 44.527344 C 121.472656 45.191406 123.011719 45.847656 124.570312 46.453125 C 126.007812 47.007812 127.390625 47.652344 128.707031 48.449219 C 129.261719 48.785156 129.855469 49.058594 130.449219 49.320312 C 131.144531 49.628906 131.886719 49.765625 132.691406 49.75 Z M 135.128906 45.007812 C 135.066406 45.125 135.015625 45.226562 134.960938 45.324219 C 134.746094 45.746094 134.757812 45.734375 135.136719 45.992188 C 135.214844 46.046875 135.222656 46.226562 135.226562 46.351562 C 135.230469 46.378906 135.078125 46.441406 135 46.441406 C 134.871094 46.441406 134.742188 46.410156 134.617188 46.382812 C 134.484375 46.351562 134.410156 46.386719 134.351562 46.515625 C 134.121094 47.019531 133.859375 47.507812 133.652344 48.015625 C 133.484375 48.417969 133.359375 48.839844 133.261719 49.265625 C 133.183594 49.59375 133.335938 49.695312 133.65625 49.597656 C 134.214844 49.429688 134.683594 49.117188 135.089844 48.707031 C 137.082031 46.679688 138.824219 44.464844 140.207031 41.976562 C 140.816406 40.882812 141.5625 39.890625 142.40625 38.972656 C 143.3125 37.992188 144.261719 37.050781 145.09375 36.011719 C 146.355469 34.441406 147.539062 32.808594 148.742188 31.191406 C 149.226562 30.539062 149.164062 30.113281 148.464844 29.695312 C 147.765625 29.277344 147.011719 28.949219 146.285156 28.574219 C 145.996094 28.425781 145.71875 28.445312 145.445312 28.59375 C 145.285156 28.679688 145.113281 28.777344 144.992188 28.910156 C 144.675781 29.25 144.371094 29.597656 144.085938 29.964844 C 143.804688 30.328125 143.554688 30.71875 143.292969 31.101562 C 143.1875 31.261719 143.1875 31.386719 143.394531 31.480469 C 143.660156 31.601562 143.914062 31.75 144.167969 31.894531 C 144.679688 32.179688 145.195312 32.457031 145.691406 32.765625 C 145.859375 32.871094 146.011719 33.042969 146.117188 33.21875 C 146.292969 33.515625 146.132812 33.777344 145.792969 33.792969 C 145.628906 33.800781 145.464844 33.792969 145.308594 33.765625 C 144.40625 33.617188 143.585938 33.242188 142.765625 32.871094 C 141.929688 32.5 141.933594 32.503906 141.445312 33.289062 C 141.324219 33.488281 141.351562 33.621094 141.546875 33.726562 C 141.933594 33.929688 142.320312 34.140625 142.714844 34.328125 C 143.085938 34.503906 143.476562 34.648438 143.855469 34.820312 C 143.945312 34.859375 144.015625 34.941406 144.09375 35.003906 C 144.082031 35.03125 144.066406 35.058594 144.054688 35.085938 C 143.894531 35.070312 143.734375 35.066406 143.582031 35.027344 C 143.402344 34.980469 143.230469 34.910156 143.058594 34.835938 C 142.417969 34.558594 141.78125 34.277344 141.136719 34.003906 C 141.066406 33.972656 140.933594 33.960938 140.902344 33.996094 C 140.664062 34.300781 140.441406 34.617188 140.183594 34.972656 C 141.355469 35.417969 142.441406 35.921875 143.457031 36.570312 C 143.121094 36.457031 142.800781 36.304688 142.476562 36.167969 C 141.824219 35.894531 141.179688 35.609375 140.515625 35.378906 C 140.078125 35.226562 139.9375 35.320312 139.703125 35.722656 C 139.578125 35.933594 139.601562 36.042969 139.828125 36.152344 C 140.039062 36.253906 140.273438 36.308594 140.476562 36.425781 C 140.921875 36.683594 141.367188 36.953125 141.792969 37.242188 C 141.957031 37.351562 142.039062 37.539062 141.902344 37.773438 C 141.773438 37.695312 141.65625 37.621094 141.539062 37.558594 C 141.046875 37.292969 140.566406 36.992188 140.054688 36.777344 C 139.273438 36.453125 139.207031 36.503906 138.859375 37.28125 C 138.78125 37.457031 138.800781 37.539062 138.996094 37.628906 C 139.648438 37.933594 140.289062 38.265625 140.933594 38.597656 C 141.023438 38.644531 141.09375 38.742188 141.21875 38.859375 C 140.867188 38.929688 140.652344 38.8125 140.429688 38.691406 C 139.910156 38.40625 139.390625 38.125 138.867188 37.851562 C 138.800781 37.816406 138.648438 37.824219 138.621094 37.867188 C 138.433594 38.167969 138.269531 38.480469 138.101562 38.785156 C 139.03125 38.886719 139.730469 39.355469 140.476562 39.894531 C 140.34375 39.949219 140.285156 40 140.230469 39.996094 C 139.394531 39.925781 138.777344 39.351562 138.03125 39.039062 C 137.851562 39.40625 137.675781 39.769531 137.484375 40.160156 C 137.894531 40.371094 138.277344 40.5625 138.652344 40.769531 C 138.902344 40.90625 139.144531 41.050781 139.375 41.214844 C 139.433594 41.257812 139.421875 41.394531 139.445312 41.484375 C 139.355469 41.503906 139.257812 41.554688 139.183594 41.53125 C 138.9375 41.445312 138.699219 41.34375 138.464844 41.234375 C 138.0625 41.042969 137.664062 40.84375 137.238281 40.636719 C 136.957031 41.21875 136.675781 41.785156 136.402344 42.355469 C 136.207031 42.761719 136.214844 42.761719 136.585938 43.035156 C 136.882812 43.25 137.179688 43.460938 137.464844 43.691406 C 137.5625 43.773438 137.617188 43.90625 137.695312 44.015625 C 137.675781 44.03125 137.65625 44.042969 137.640625 44.058594 C 137.507812 43.980469 137.378906 43.898438 137.246094 43.820312 C 136.964844 43.660156 136.679688 43.503906 136.402344 43.332031 C 136.207031 43.210938 136.070312 43.261719 135.964844 43.449219 C 135.800781 43.730469 135.644531 44.015625 135.476562 44.292969 C 135.34375 44.511719 135.386719 44.65625 135.621094 44.773438 C 136.027344 44.976562 136.425781 45.195312 136.824219 45.414062 C 136.933594 45.476562 137.027344 45.570312 137.128906 45.648438 C 137.109375 45.683594 137.089844 45.714844 137.070312 45.75 C 136.382812 45.652344 135.792969 45.265625 135.128906 45.007812 Z M 118.089844 13.132812 C 121.492188 13.972656 124.664062 15.257812 127.871094 16.449219 C 127.769531 16.332031 127.660156 16.242188 127.539062 16.167969 C 126.980469 15.832031 126.425781 15.496094 125.863281 15.167969 C 124.113281 14.140625 122.363281 13.117188 120.613281 12.089844 C 120.410156 11.972656 120.203125 11.859375 119.992188 11.761719 C 119.738281 11.644531 119.484375 11.667969 119.289062 11.867188 C 118.890625 12.265625 118.511719 12.6875 118.089844 13.132812 Z M 142.296875 29 C 142.378906 28.921875 142.425781 28.886719 142.460938 28.84375 C 143.648438 27.46875 144.835938 26.089844 146.011719 24.703125 C 146.203125 24.476562 146.347656 24.210938 146.503906 23.953125 C 146.589844 23.804688 146.554688 23.679688 146.394531 23.585938 C 145.824219 23.25 145.539062 23.304688 145.167969 23.84375 C 145.140625 23.882812 145.113281 23.921875 145.085938 23.964844 C 144.1875 25.5625 143.289062 27.15625 142.394531 28.757812 C 142.359375 28.816406 142.34375 28.886719 142.296875 29 Z M 141.347656 31.019531 C 141.367188 31.042969 141.390625 31.0625 141.410156 31.085938 C 141.742188 30.746094 142.078125 30.40625 142.410156 30.066406 C 143.167969 29.285156 144.003906 28.613281 145.003906 28.164062 C 145.433594 27.972656 145.871094 27.796875 146.300781 27.601562 C 146.496094 27.511719 146.695312 27.410156 146.871094 27.285156 C 146.945312 27.230469 147.015625 27.082031 146.996094 27.003906 C 146.972656 26.910156 146.859375 26.804688 146.761719 26.769531 C 146.636719 26.726562 146.488281 26.730469 146.355469 26.75 C 145.648438 26.855469 145.003906 27.132812 144.496094 27.632812 C 143.730469 28.386719 143 29.171875 142.269531 29.953125 C 141.945312 30.292969 141.652344 30.664062 141.347656 31.019531 Z M 142.898438 31.476562 C 142.71875 31.707031 142.578125 31.894531 142.433594 32.082031 C 142.320312 32.226562 142.335938 32.339844 142.507812 32.429688 C 143.3125 32.863281 144.144531 33.21875 145.046875 33.390625 C 145.257812 33.433594 145.445312 33.386719 145.597656 33.21875 C 145.703125 33.097656 145.707031 33.011719 145.558594 32.929688 C 144.675781 32.449219 143.796875 31.96875 142.898438 31.476562 Z M 145.449219 26.519531 C 145.46875 26.542969 145.484375 26.566406 145.5 26.589844 C 146.269531 26.40625 147.042969 26.230469 147.808594 26.035156 C 148.058594 25.972656 148.089844 25.875 147.90625 25.679688 C 147.628906 25.382812 147.324219 25.117188 147.03125 24.835938 C 146.910156 24.722656 146.8125 24.738281 146.707031 24.867188 C 146.332031 25.34375 145.945312 25.816406 145.570312 26.292969 C 145.519531 26.359375 145.488281 26.445312 145.449219 26.519531 Z M 148.59375 33.667969 C 148.058594 34.195312 147.539062 34.707031 146.96875 35.273438 C 147.746094 34.902344 148.457031 34.5625 149.183594 34.21875 C 148.972656 34.019531 148.785156 33.84375 148.59375 33.667969 Z M 140.140625 33.792969 C 140.167969 33.820312 140.195312 33.84375 140.222656 33.867188 C 141.292969 32.511719 142.359375 31.15625 143.429688 29.804688 C 143.40625 29.785156 143.382812 29.765625 143.359375 29.746094 C 142.132812 30.972656 141.109375 32.363281 140.140625 33.792969 Z M 147.792969 33.398438 C 147.816406 33.421875 147.839844 33.441406 147.867188 33.464844 C 148.320312 33.21875 148.730469 32.910156 149.070312 32.519531 C 149.121094 32.460938 149.121094 32.332031 149.109375 32.242188 C 149.097656 32.171875 149.050781 32.085938 148.992188 32.050781 C 148.957031 32.03125 148.851562 32.089844 148.8125 32.140625 C 148.46875 32.554688 148.132812 32.976562 147.792969 33.398438 Z M 142.304688 40.148438 C 142.273438 40.128906 142.242188 40.105469 142.210938 40.082031 C 141.488281 41.054688 140.835938 42.078125 140.28125 43.15625 C 140.3125 43.175781 140.34375 43.195312 140.375 43.214844 C 141.019531 42.195312 141.664062 41.171875 142.304688 40.148438 Z M 138.292969 36.035156 C 138.265625 36.019531 138.238281 36.003906 138.207031 35.992188 C 138.054688 36.300781 137.902344 36.609375 137.75 36.917969 C 137.777344 36.929688 137.804688 36.945312 137.832031 36.957031 C 137.988281 36.648438 138.140625 36.339844 138.292969 36.035156 Z M 137.253906 38.917969 C 137.289062 38.929688 137.320312 38.945312 137.351562 38.957031 C 137.417969 38.789062 137.484375 38.617188 137.554688 38.445312 C 137.519531 38.433594 137.484375 38.417969 137.449219 38.40625 C 137.386719 38.578125 137.320312 38.746094 137.253906 38.917969 Z M 137.253906 38.917969 " fill-opacity="1" fill-rule="nonzero"/></g><path fill="#000000" d="M 110.117188 20.261719 C 113.257812 20.6875 116.324219 21.34375 119.058594 23.0625 C 119.25 23.183594 119.4375 23.320312 119.617188 23.457031 C 119.9375 23.703125 119.972656 23.800781 119.785156 24.152344 C 119.296875 25.042969 118.816406 25.9375 118.296875 26.808594 C 117.570312 28.015625 116.941406 29.261719 116.445312 30.585938 C 116.121094 31.453125 115.699219 32.296875 115.246094 33.109375 C 114.753906 33.988281 114.382812 34.882812 114.304688 35.894531 C 114.28125 36.167969 114.195312 36.4375 114.105469 36.695312 C 113.96875 37.082031 113.671875 37.285156 113.273438 37.359375 C 112.558594 37.488281 111.875 37.351562 111.222656 37.082031 C 110.257812 36.675781 109.3125 36.230469 108.363281 35.789062 C 107.066406 35.1875 105.691406 34.882812 104.28125 34.722656 C 104.039062 34.695312 103.796875 34.660156 103.5625 34.601562 C 103.289062 34.53125 103.21875 34.40625 103.273438 34.132812 C 103.304688 33.980469 103.351562 33.832031 103.410156 33.691406 C 104.402344 31.242188 105.355469 28.769531 106.417969 26.347656 C 107.097656 24.800781 107.945312 23.324219 108.710938 21.8125 C 108.882812 21.480469 109.039062 21.140625 109.1875 20.800781 C 109.375 20.363281 109.578125 20.242188 110.117188 20.261719 Z M 109.496094 35.707031 C 109.609375 35.617188 109.691406 35.527344 109.792969 35.46875 C 110.121094 35.273438 110.449219 35.082031 110.789062 34.90625 C 111.605469 34.476562 112.425781 34.042969 113.257812 33.640625 C 113.46875 33.539062 113.75 33.484375 113.976562 33.523438 C 114.226562 33.566406 114.363281 33.519531 114.480469 33.316406 C 114.527344 33.234375 114.582031 33.152344 114.628906 33.066406 C 115.3125 31.84375 115.84375 30.554688 116.320312 29.242188 C 116.375 29.09375 116.410156 28.941406 116.46875 28.734375 C 116.058594 28.921875 115.707031 29.085938 115.351562 29.246094 C 112.898438 30.375 110.445312 31.511719 107.984375 32.628906 C 107.535156 32.832031 107.058594 32.984375 106.589844 33.132812 C 106.496094 33.164062 106.367188 33.085938 106.253906 33.058594 C 106.308594 32.972656 106.355469 32.871094 106.429688 32.800781 C 106.503906 32.730469 106.601562 32.679688 106.695312 32.632812 C 107.050781 32.457031 107.40625 32.273438 107.765625 32.105469 C 110.8125 30.6875 113.859375 29.269531 116.902344 27.851562 C 116.988281 27.8125 117.085938 27.753906 117.128906 27.679688 C 117.78125 26.539062 118.4375 25.398438 119.0625 24.242188 C 119.320312 23.773438 119.273438 23.59375 118.828125 23.304688 C 118.285156 22.949219 117.726562 22.617188 117.140625 22.339844 C 115.40625 21.515625 113.5625 21.03125 111.671875 20.722656 C 111.515625 20.695312 111.320312 20.738281 111.1875 20.816406 C 110.664062 21.125 110.128906 21.425781 109.648438 21.796875 C 109.121094 22.199219 108.816406 22.785156 108.574219 23.410156 C 108.761719 23.339844 108.933594 23.253906 109.09375 23.152344 C 109.976562 22.601562 110.851562 22.039062 111.734375 21.492188 C 111.898438 21.390625 112.078125 21.296875 112.261719 21.253906 C 112.351562 21.234375 112.488281 21.332031 112.570312 21.410156 C 112.597656 21.433594 112.539062 21.59375 112.480469 21.652344 C 112.378906 21.757812 112.253906 21.839844 112.132812 21.917969 C 110.875 22.714844 109.621094 23.511719 108.363281 24.300781 C 108.0625 24.488281 107.785156 24.703125 107.632812 25.03125 C 107.339844 25.667969 107.058594 26.304688 106.773438 26.941406 C 106.742188 27.003906 106.722656 27.074219 106.703125 27.144531 C 107.863281 26.507812 109.011719 25.898438 110.144531 25.261719 C 111.664062 24.40625 113.214844 23.597656 114.523438 22.414062 C 114.558594 22.378906 114.601562 22.355469 114.644531 22.332031 C 114.808594 22.246094 114.992188 22.167969 115.136719 22.335938 C 115.285156 22.515625 115.105469 22.648438 114.996094 22.742188 C 114.535156 23.148438 114.09375 23.601562 113.574219 23.921875 C 112.367188 24.667969 111.113281 25.339844 109.886719 26.054688 C 108.828125 26.671875 107.777344 27.304688 106.730469 27.941406 C 106.453125 28.105469 106.257812 28.355469 106.132812 28.660156 C 105.464844 30.308594 104.789062 31.949219 104.117188 33.597656 C 104.019531 33.84375 103.933594 34.09375 103.824219 34.382812 C 104.375 34.484375 104.886719 34.601562 105.40625 34.671875 C 106.707031 34.851562 107.945312 35.203125 109.117188 35.796875 C 109.617188 36.046875 110.128906 36.28125 110.640625 36.503906 C 111.273438 36.78125 111.90625 37.070312 112.601562 37.140625 C 112.917969 37.171875 113.210938 37.109375 113.386719 36.8125 C 113.582031 36.492188 113.601562 36.132812 113.660156 35.679688 C 113.046875 35.890625 112.507812 36.082031 111.960938 36.253906 C 111.695312 36.339844 111.417969 36.402344 111.140625 36.445312 C 111.066406 36.457031 110.980469 36.371094 110.898438 36.332031 C 110.949219 36.265625 110.988281 36.167969 111.058594 36.140625 C 111.421875 35.980469 111.78125 35.808594 112.164062 35.703125 C 112.574219 35.585938 113 35.5 113.425781 35.476562 C 113.652344 35.464844 113.71875 35.398438 113.765625 35.210938 C 113.851562 34.871094 113.949219 34.539062 114.050781 34.203125 C 114.085938 34.085938 114.148438 33.972656 114.210938 33.832031 C 114.132812 33.835938 114.09375 33.832031 114.058594 33.84375 C 113.941406 33.878906 113.820312 33.910156 113.714844 33.964844 C 112.730469 34.484375 111.746094 35.003906 110.761719 35.523438 C 110.554688 35.628906 110.34375 35.738281 110.125 35.820312 C 109.921875 35.898438 109.714844 35.863281 109.496094 35.707031 Z M 109.6875 21.253906 C 110.058594 21.015625 110.382812 20.808594 110.746094 20.578125 C 110.097656 20.378906 109.882812 20.519531 109.6875 21.253906 Z M 109.6875 21.253906 " fill-opacity="1" fill-rule="nonzero"/><path fill="#000000" d="M 140.046875 28.785156 C 139.925781 28.992188 139.773438 28.941406 139.644531 28.886719 C 139.261719 28.730469 138.882812 28.5625 138.507812 28.386719 C 137.054688 27.714844 135.53125 27.234375 134.011719 26.730469 C 131.839844 26.007812 129.667969 25.292969 127.515625 24.519531 C 125.003906 23.613281 122.433594 22.9375 119.839844 22.332031 C 117.871094 21.871094 115.90625 21.394531 114.015625 20.671875 C 112.863281 20.230469 111.742188 19.714844 110.609375 19.222656 C 110.464844 19.160156 110.324219 19.066406 110.199219 18.96875 C 110.140625 18.921875 110.125 18.824219 110.089844 18.75 C 110.175781 18.726562 110.277344 18.667969 110.347656 18.6875 C 110.570312 18.757812 110.785156 18.859375 111 18.949219 C 112.246094 19.460938 113.480469 20.007812 114.742188 20.476562 C 116.578125 21.15625 118.484375 21.609375 120.394531 22.019531 C 123.324219 22.644531 126.148438 23.605469 128.957031 24.625 C 131.285156 25.46875 133.65625 26.1875 136 26.976562 C 137.246094 27.394531 138.476562 27.859375 139.628906 28.503906 C 139.773438 28.585938 139.90625 28.6875 140.046875 28.785156 Z M 140.046875 28.785156 " fill-opacity="1" fill-rule="nonzero"/><path fill="#000000" d="M 104.046875 36.933594 C 104.199219 36.703125 104.363281 36.660156 104.582031 36.699219 C 107.210938 37.167969 109.808594 37.789062 112.378906 38.511719 C 115.519531 39.394531 118.597656 40.476562 121.683594 41.527344 C 123.5 42.144531 125.351562 42.625 127.21875 43.0625 C 128.621094 43.390625 129.980469 43.84375 131.234375 44.574219 C 131.367188 44.652344 131.5 44.734375 131.613281 44.839844 C 131.671875 44.894531 131.730469 45.035156 131.699219 45.078125 C 131.652344 45.148438 131.53125 45.207031 131.445312 45.203125 C 131.328125 45.203125 131.199219 45.160156 131.101562 45.09375 C 129.226562 43.828125 127.039062 43.484375 124.914062 42.921875 C 123.332031 42.503906 121.769531 42.003906 120.21875 41.476562 C 116.746094 40.300781 113.273438 39.109375 109.714844 38.222656 C 107.980469 37.789062 106.226562 37.449219 104.484375 37.066406 C 104.347656 37.035156 104.210938 36.984375 104.046875 36.933594 Z M 104.046875 36.933594 " fill-opacity="1" fill-rule="nonzero"/><path fill="#000000" d="M 121.085938 24.660156 C 121.082031 24.3125 121.234375 24.171875 121.519531 24.261719 C 121.886719 24.378906 122.261719 24.507812 122.605469 24.683594 C 124.882812 25.851562 127.324219 26.53125 129.789062 27.167969 C 132.355469 27.832031 134.917969 28.515625 137.476562 29.214844 C 138.03125 29.363281 138.566406 29.589844 139.097656 29.804688 C 139.480469 29.957031 139.816406 30.191406 140.058594 30.53125 C 140.117188 30.609375 140.167969 30.777344 140.128906 30.828125 C 140.066406 30.902344 139.90625 30.96875 139.8125 30.941406 C 139.519531 30.859375 139.226562 30.757812 138.957031 30.613281 C 138.601562 30.421875 138.265625 30.1875 137.925781 29.964844 C 137.144531 29.441406 136.253906 29.222656 135.351562 29.050781 C 132.648438 28.539062 129.996094 27.808594 127.335938 27.101562 C 125.808594 26.695312 124.273438 26.3125 122.746094 25.898438 C 122.359375 25.792969 121.984375 25.621094 121.621094 25.449219 C 121.277344 25.285156 121.117188 24.980469 121.085938 24.660156 Z M 126.230469 26.605469 C 126.238281 26.585938 126.246094 26.5625 126.253906 26.539062 C 124.75 25.945312 123.246094 25.355469 121.6875 24.742188 C 121.730469 24.847656 121.738281 24.929688 121.78125 24.964844 C 122.074219 25.191406 122.339844 25.511719 122.671875 25.617188 C 123.847656 25.984375 125.042969 26.28125 126.230469 26.605469 Z M 133.902344 28.558594 C 133.910156 28.527344 133.917969 28.492188 133.925781 28.460938 C 132.773438 28.164062 131.621094 27.863281 130.46875 27.566406 C 130.457031 27.601562 130.449219 27.640625 130.4375 27.679688 C 131.59375 27.972656 132.75 28.265625 133.902344 28.558594 Z M 133.902344 28.558594 " fill-opacity="1" fill-rule="nonzero"/><path fill="#000000" d="M 127.945312 21.886719 C 128.589844 21.242188 128.988281 20.421875 129.496094 19.660156 C 129.75 19.730469 129.875 19.929688 129.96875 20.144531 C 130.246094 20.769531 130.378906 21.425781 130.40625 22.105469 C 130.414062 22.3125 130.40625 22.519531 130.40625 22.726562 C 130.429688 22.738281 130.457031 22.75 130.480469 22.761719 C 130.867188 22.308594 131.261719 21.859375 131.628906 21.394531 C 131.84375 21.121094 132.011719 20.808594 132.214844 20.523438 C 132.308594 20.394531 132.414062 20.1875 132.613281 20.296875 C 132.808594 20.40625 132.777344 20.625 132.691406 20.796875 C 132.542969 21.09375 132.40625 21.410156 132.195312 21.65625 C 131.648438 22.300781 131.066406 22.914062 130.5 23.539062 C 130.496094 23.542969 130.488281 23.550781 130.480469 23.554688 C 130.296875 23.6875 130.125 23.929688 129.867188 23.785156 C 129.644531 23.660156 129.789062 23.414062 129.785156 23.222656 C 129.773438 22.566406 129.78125 21.910156 129.761719 21.253906 C 129.757812 21.121094 129.664062 20.996094 129.613281 20.867188 C 129.515625 20.953125 129.40625 21.03125 129.324219 21.132812 C 128.953125 21.613281 128.605469 22.117188 128.214844 22.582031 C 127.878906 22.980469 127.691406 22.953125 127.527344 22.457031 C 127.351562 21.910156 127.242188 21.339844 127.160156 20.773438 C 127.085938 20.230469 127.070312 19.675781 127.054688 19.121094 C 127.050781 18.933594 127.035156 18.648438 127.304688 18.640625 C 127.554688 18.632812 127.554688 18.914062 127.574219 19.089844 C 127.652344 19.832031 127.703125 20.578125 127.773438 21.320312 C 127.789062 21.503906 127.828125 21.683594 127.855469 21.867188 C 127.886719 21.875 127.914062 21.878906 127.945312 21.886719 Z M 127.945312 21.886719 " fill-opacity="1" fill-rule="nonzero"/><path fill="#000000" d="M 119.695312 17.007812 C 119.511719 17.351562 119.34375 17.660156 119.183594 17.980469 C 118.890625 18.558594 118.609375 19.144531 118.316406 19.722656 C 118.25 19.851562 118.160156 19.953125 117.988281 19.886719 C 117.804688 19.816406 117.730469 19.699219 117.816406 19.507812 C 118.066406 18.945312 118.304688 18.375 118.570312 17.820312 C 118.824219 17.285156 119.101562 16.761719 119.378906 16.238281 C 119.515625 15.976562 119.714844 15.976562 119.863281 16.230469 C 119.988281 16.449219 120.097656 16.675781 120.191406 16.910156 C 120.433594 17.546875 120.664062 18.1875 120.902344 18.824219 C 120.953125 18.957031 121.019531 19.085938 121.105469 19.273438 C 121.25 19.101562 121.378906 18.988281 121.457031 18.847656 C 121.734375 18.351562 121.992188 17.84375 122.261719 17.347656 C 122.328125 17.222656 122.335938 17.007812 122.558594 17.070312 C 122.785156 17.132812 122.847656 17.320312 122.789062 17.515625 C 122.707031 17.800781 122.621094 18.101562 122.46875 18.351562 C 122.128906 18.902344 121.746094 19.429688 121.375 19.960938 C 121.269531 20.113281 121.136719 20.273438 120.914062 20.199219 C 120.679688 20.121094 120.625 19.921875 120.589844 19.703125 C 120.433594 18.800781 120.136719 17.945312 119.777344 17.105469 C 119.769531 17.085938 119.746094 17.070312 119.695312 17.007812 Z M 119.695312 17.007812 " fill-opacity="1" fill-rule="nonzero"/><path fill="#000000" d="M 117.003906 34.433594 C 117.246094 34.515625 117.453125 34.574219 117.644531 34.65625 C 119.085938 35.285156 120.527344 35.921875 121.96875 36.558594 C 122.851562 36.949219 123.734375 37.34375 124.613281 37.738281 C 124.769531 37.808594 124.921875 37.890625 125.058594 37.984375 C 125.117188 38.023438 125.140625 38.113281 125.175781 38.179688 C 125.105469 38.203125 125.027344 38.257812 124.964844 38.242188 C 124.707031 38.175781 124.441406 38.113281 124.199219 38.011719 C 122.464844 37.273438 120.738281 36.523438 119.007812 35.78125 C 118.351562 35.496094 117.695312 35.214844 117.035156 34.945312 C 116.867188 34.875 116.84375 34.75 116.863281 34.613281 C 116.871094 34.550781 116.953125 34.496094 117.003906 34.433594 Z M 117.003906 34.433594 " fill-opacity="1" fill-rule="nonzero"/><path fill="#000000" d="M 134.199219 41.136719 C 134.058594 41.136719 133.902344 41.175781 133.777344 41.128906 C 133.140625 40.894531 132.5 40.664062 131.875 40.390625 C 130.125 39.617188 128.378906 38.828125 126.636719 38.039062 C 126.453125 37.957031 126.273438 37.855469 126.109375 37.734375 C 126.039062 37.683594 126.015625 37.574219 125.972656 37.488281 C 126.066406 37.472656 126.175781 37.417969 126.25 37.445312 C 126.882812 37.695312 127.519531 37.941406 128.140625 38.21875 C 129.976562 39.046875 131.804688 39.886719 133.632812 40.726562 C 133.832031 40.816406 134.019531 40.925781 134.210938 41.027344 C 134.207031 41.0625 134.203125 41.097656 134.199219 41.136719 Z M 134.199219 41.136719 " fill-opacity="1" fill-rule="nonzero"/><path fill="#000000" d="M 135.84375 22.226562 C 135.707031 22.207031 135.542969 22.226562 135.4375 22.160156 C 135.242188 22.035156 135.078125 21.859375 134.902344 21.703125 C 134.742188 21.5625 134.601562 21.324219 134.351562 21.417969 C 134.085938 21.515625 133.9375 21.773438 133.925781 22.046875 C 133.917969 22.273438 133.960938 22.523438 134.054688 22.726562 C 134.210938 23.066406 134.429688 23.371094 134.609375 23.699219 C 134.738281 23.933594 134.855469 24.171875 134.960938 24.417969 C 135.042969 24.613281 134.976562 24.792969 134.804688 24.914062 C 133.816406 25.597656 132.65625 25.367188 132.035156 24.714844 C 131.960938 24.640625 131.894531 24.550781 131.859375 24.457031 C 131.835938 24.386719 131.835938 24.265625 131.882812 24.21875 C 131.929688 24.167969 132.066406 24.132812 132.121094 24.167969 C 132.242188 24.242188 132.402344 24.34375 132.4375 24.46875 C 132.609375 25.019531 133.636719 25.292969 134.207031 24.839844 C 134.367188 24.710938 134.410156 24.542969 134.328125 24.363281 C 134.210938 24.113281 134.082031 23.871094 133.949219 23.628906 C 133.761719 23.285156 133.554688 22.957031 133.382812 22.609375 C 133.199219 22.226562 133.28125 21.867188 133.546875 21.542969 C 133.695312 21.359375 133.882812 21.285156 134.113281 21.253906 C 134.769531 21.167969 135.292969 21.386719 135.707031 21.886719 C 135.773438 21.964844 135.824219 22.054688 135.878906 22.140625 C 135.867188 22.167969 135.855469 22.199219 135.84375 22.226562 Z M 135.84375 22.226562 " fill-opacity="1" fill-rule="nonzero"/><path fill="#000000" d="M 125.128906 20.246094 C 124.597656 20.039062 124.0625 19.832031 123.484375 19.609375 C 123.320312 20.117188 123.15625 20.589844 123.015625 21.070312 C 122.953125 21.28125 123.101562 21.410156 123.28125 21.476562 C 123.613281 21.609375 123.953125 21.71875 124.285156 21.847656 C 124.472656 21.917969 124.652344 22 124.820312 22.128906 C 124.769531 22.128906 124.71875 22.136719 124.667969 22.125 C 123.945312 21.953125 123.265625 21.675781 122.617188 21.316406 C 122.417969 21.207031 122.355469 21.0625 122.417969 20.855469 C 122.628906 20.210938 122.824219 19.554688 123.0625 18.921875 C 123.207031 18.546875 123.472656 18.242188 123.824219 18.023438 C 124.050781 17.878906 124.296875 17.839844 124.542969 17.945312 C 125.144531 18.199219 125.632812 18.613281 126.109375 19.046875 C 126.136719 19.070312 126.148438 19.113281 126.136719 19.191406 C 126.046875 19.144531 125.949219 19.101562 125.863281 19.042969 C 125.574219 18.835938 125.300781 18.605469 125 18.414062 C 124.667969 18.199219 124.511719 18.210938 124.210938 18.472656 C 124.046875 18.613281 123.90625 18.785156 123.773438 18.957031 C 123.652344 19.117188 123.679688 19.265625 123.871094 19.355469 C 124.128906 19.472656 124.390625 19.582031 124.648438 19.703125 C 124.785156 19.769531 124.929688 19.832031 125.050781 19.921875 C 125.125 19.980469 125.15625 20.089844 125.207031 20.175781 C 125.179688 20.199219 125.15625 20.222656 125.128906 20.246094 Z M 125.128906 20.246094 " fill-opacity="1" fill-rule="nonzero"/><path fill="#000000" d="M 128.261719 32.699219 C 128.445312 32.496094 128.625 32.496094 128.796875 32.554688 C 129.28125 32.714844 129.765625 32.878906 130.242188 33.0625 C 132.125 33.789062 134.007812 34.519531 135.886719 35.253906 C 136 35.296875 136.117188 35.34375 136.21875 35.40625 C 136.277344 35.445312 136.3125 35.519531 136.359375 35.578125 C 136.285156 35.617188 136.207031 35.695312 136.140625 35.6875 C 135.933594 35.664062 135.722656 35.628906 135.527344 35.558594 C 134.675781 35.238281 133.832031 34.90625 132.984375 34.578125 C 131.546875 34.019531 130.109375 33.464844 128.675781 32.90625 C 128.542969 32.855469 128.421875 32.777344 128.261719 32.699219 Z M 128.261719 32.699219 " fill-opacity="1" fill-rule="nonzero"/><path fill="#000000" d="M 127.035156 32.765625 C 126.796875 32.695312 126.570312 32.644531 126.363281 32.566406 C 124.1875 31.738281 122.015625 30.902344 119.84375 30.066406 C 119.703125 30.011719 119.558594 29.953125 119.425781 29.875 C 119.367188 29.839844 119.332031 29.761719 119.285156 29.703125 C 119.359375 29.667969 119.4375 29.59375 119.507812 29.601562 C 119.691406 29.625 119.878906 29.664062 120.050781 29.726562 C 121.394531 30.222656 122.742188 30.71875 124.082031 31.230469 C 124.96875 31.566406 125.847656 31.925781 126.726562 32.28125 C 126.855469 32.332031 126.984375 32.382812 127.101562 32.457031 C 127.171875 32.5 127.21875 32.582031 127.277344 32.648438 C 127.195312 32.6875 127.113281 32.726562 127.035156 32.765625 Z M 127.035156 32.765625 " fill-opacity="1" fill-rule="nonzero"/><path fill="#000000" d="M 124.433594 39.019531 C 124.226562 39.25 124.015625 39.226562 123.824219 39.1875 C 123.394531 39.101562 122.957031 39.027344 122.550781 38.882812 C 120.921875 38.296875 119.308594 37.6875 117.6875 37.09375 C 117.15625 36.898438 116.613281 36.722656 116.082031 36.53125 C 116.003906 36.5 115.945312 36.417969 115.875 36.363281 C 115.96875 36.300781 116.0625 36.183594 116.15625 36.1875 C 116.3125 36.1875 116.46875 36.253906 116.621094 36.3125 C 117.886719 36.792969 119.152344 37.277344 120.414062 37.765625 C 121.570312 38.21875 122.742188 38.625 123.964844 38.867188 C 124.109375 38.898438 124.25 38.960938 124.433594 39.019531 Z M 124.433594 39.019531 " fill-opacity="1" fill-rule="nonzero"/><path fill="#000000" d="M 123.402344 40.503906 C 123.238281 40.496094 123.066406 40.503906 122.90625 40.46875 C 120.28125 39.90625 117.765625 39.046875 115.457031 37.644531 C 115.332031 37.570312 115.210938 37.488281 115.097656 37.390625 C 115.054688 37.351562 115.039062 37.277344 115.011719 37.214844 C 115.078125 37.199219 115.152344 37.152344 115.210938 37.167969 C 115.34375 37.199219 115.480469 37.238281 115.59375 37.3125 C 117.644531 38.601562 119.921875 39.328125 122.238281 39.949219 C 122.558594 40.035156 122.871094 40.15625 123.179688 40.273438 C 123.265625 40.304688 123.34375 40.367188 123.421875 40.414062 C 123.414062 40.445312 123.410156 40.476562 123.402344 40.503906 Z M 123.402344 40.503906 " fill-opacity="1" fill-rule="nonzero"/><path fill="#000000" d="M 124.972656 39.160156 C 125.101562 39.171875 125.242188 39.15625 125.359375 39.199219 C 126.226562 39.496094 127.09375 39.792969 127.949219 40.113281 C 129.539062 40.710938 131.105469 41.355469 132.757812 41.761719 C 132.980469 41.816406 133.195312 41.914062 133.410156 41.996094 C 133.40625 42.03125 133.402344 42.066406 133.398438 42.101562 C 133.207031 42.105469 133.007812 42.152344 132.828125 42.105469 C 132 41.886719 131.15625 41.691406 130.351562 41.40625 C 128.730469 40.828125 127.132812 40.191406 125.527344 39.582031 C 125.417969 39.542969 125.300781 39.527344 125.203125 39.472656 C 125.101562 39.417969 125.019531 39.328125 124.929688 39.253906 C 124.945312 39.222656 124.960938 39.191406 124.972656 39.160156 Z M 124.972656 39.160156 " fill-opacity="1" fill-rule="nonzero"/><path fill="#000000" d="M 132.492188 43.472656 C 132.382812 43.472656 132.269531 43.496094 132.167969 43.472656 C 129.675781 42.910156 127.246094 42.167969 125.015625 40.878906 C 124.765625 40.734375 124.53125 40.558594 124.296875 40.382812 C 124.226562 40.332031 124.179688 40.242188 124.125 40.167969 C 124.140625 40.144531 124.15625 40.117188 124.171875 40.09375 C 124.335938 40.15625 124.507812 40.207031 124.664062 40.289062 C 125.109375 40.519531 125.539062 40.78125 125.992188 41.003906 C 127.644531 41.828125 129.394531 42.390625 131.175781 42.871094 C 131.542969 42.96875 131.898438 43.113281 132.253906 43.242188 C 132.347656 43.277344 132.425781 43.347656 132.511719 43.398438 C 132.507812 43.425781 132.5 43.449219 132.492188 43.472656 Z M 132.492188 43.472656 " fill-opacity="1" fill-rule="nonzero"/><path fill="#000000" d="M 126.046875 34.6875 C 125.894531 34.882812 125.707031 34.851562 125.539062 34.796875 C 124.808594 34.558594 124.074219 34.320312 123.355469 34.050781 C 121.828125 33.480469 120.308594 32.886719 118.789062 32.304688 C 118.730469 32.28125 118.671875 32.25 118.605469 32.21875 C 118.667969 32.039062 118.710938 31.890625 118.957031 31.980469 C 121.285156 32.867188 123.613281 33.746094 125.941406 34.625 C 125.972656 34.636719 125.996094 34.65625 126.046875 34.6875 Z M 126.046875 34.6875 " fill-opacity="1" fill-rule="nonzero"/><path fill="#000000" d="M 117.511719 32.941406 C 117.675781 32.976562 117.847656 32.988281 117.996094 33.050781 C 118.964844 33.460938 119.929688 33.886719 120.902344 34.300781 C 122.304688 34.898438 123.707031 35.488281 125.109375 36.085938 C 125.296875 36.164062 125.480469 36.246094 125.660156 36.339844 C 125.78125 36.398438 125.859375 36.488281 125.734375 36.675781 C 122.886719 35.699219 120.21875 34.292969 117.457031 33.09375 C 117.476562 33.042969 117.496094 32.992188 117.511719 32.941406 Z M 117.511719 32.941406 " fill-opacity="1" fill-rule="nonzero"/><path fill="#000000" d="M 127.570312 35.046875 C 127.867188 34.871094 128.09375 34.960938 128.308594 35.039062 C 129.488281 35.472656 130.667969 35.902344 131.84375 36.351562 C 132.765625 36.707031 133.679688 37.085938 134.597656 37.457031 C 134.738281 37.511719 134.871094 37.582031 135.007812 37.648438 C 135.003906 37.675781 135 37.707031 135 37.738281 C 134.902344 37.746094 134.792969 37.785156 134.703125 37.761719 C 134.132812 37.585938 133.554688 37.421875 132.996094 37.207031 C 131.371094 36.589844 129.757812 35.957031 128.140625 35.324219 C 127.964844 35.253906 127.796875 35.15625 127.570312 35.046875 Z M 127.570312 35.046875 " fill-opacity="1" fill-rule="nonzero"/><path fill="#000000" d="M 134.96875 39.546875 C 134.78125 39.519531 134.621094 39.519531 134.480469 39.464844 C 133.597656 39.132812 132.710938 38.816406 131.847656 38.445312 C 130.222656 37.742188 128.613281 37.007812 127 36.28125 C 126.832031 36.207031 126.6875 36.078125 126.53125 35.976562 C 126.546875 35.945312 126.558594 35.910156 126.574219 35.878906 C 126.675781 35.898438 126.785156 35.898438 126.878906 35.9375 C 127.894531 36.367188 128.910156 36.796875 129.921875 37.234375 C 131.152344 37.769531 132.375 38.3125 133.605469 38.835938 C 133.886719 38.957031 134.195312 39.011719 134.488281 39.117188 C 134.675781 39.183594 134.890625 39.242188 134.96875 39.546875 Z M 134.96875 39.546875 " fill-opacity="1" fill-rule="nonzero"/><path fill="#000000" d="M 119.882812 27.71875 C 120.050781 27.769531 120.21875 27.8125 120.378906 27.875 C 121.679688 28.378906 122.976562 28.894531 124.28125 29.390625 C 125.3125 29.78125 126.355469 30.144531 127.390625 30.527344 C 127.554688 30.585938 127.714844 30.671875 127.867188 30.761719 C 127.941406 30.804688 127.996094 30.886719 128.058594 30.949219 C 128.046875 30.972656 128.035156 30.996094 128.023438 31.015625 C 127.933594 31.007812 127.839844 31.011719 127.757812 30.980469 C 125.851562 30.296875 123.9375 29.621094 122.035156 28.914062 C 121.40625 28.679688 120.800781 28.382812 120.1875 28.101562 C 120.050781 28.039062 119.941406 27.925781 119.820312 27.835938 C 119.839844 27.796875 119.863281 27.757812 119.882812 27.71875 Z M 119.882812 27.71875 " fill-opacity="1" fill-rule="nonzero"/><path fill="#000000" d="M 137.109375 33.953125 C 137.027344 33.9375 136.9375 33.929688 136.859375 33.898438 C 134.582031 33.074219 132.300781 32.253906 130.027344 31.410156 C 129.683594 31.28125 129.375 31.058594 129.046875 30.878906 C 128.996094 30.855469 128.945312 30.832031 128.890625 30.808594 C 128.914062 30.777344 128.9375 30.742188 128.957031 30.707031 C 129.078125 30.738281 129.199219 30.757812 129.308594 30.800781 C 130.683594 31.320312 132.050781 31.847656 133.425781 32.363281 C 134.410156 32.734375 135.402344 33.089844 136.386719 33.457031 C 136.578125 33.527344 136.757812 33.625 136.933594 33.722656 C 137.011719 33.765625 137.070312 33.839844 137.140625 33.902344 C 137.128906 33.917969 137.121094 33.9375 137.109375 33.953125 Z M 137.109375 33.953125 " fill-opacity="1" fill-rule="nonzero"/><path fill="#000000" d="M 120.535156 26.445312 C 120.792969 26.5 121.058594 26.527344 121.304688 26.617188 C 122.683594 27.121094 124.058594 27.632812 125.425781 28.160156 C 126.425781 28.542969 127.414062 28.957031 128.40625 29.355469 C 128.519531 29.402344 128.625 29.457031 128.726562 29.5625 C 128.578125 29.546875 128.417969 29.554688 128.28125 29.507812 C 127.054688 29.066406 125.824219 28.625 124.601562 28.171875 C 123.316406 27.695312 122.039062 27.207031 120.757812 26.71875 C 120.660156 26.683594 120.578125 26.613281 120.488281 26.558594 C 120.503906 26.519531 120.519531 26.480469 120.535156 26.445312 Z M 120.535156 26.445312 " fill-opacity="1" fill-rule="nonzero"/><path fill="#000000" d="M 137.703125 32.558594 C 137.539062 32.527344 137.363281 32.515625 137.207031 32.457031 C 135.652344 31.871094 134.097656 31.28125 132.546875 30.683594 C 131.644531 30.339844 130.753906 29.972656 129.855469 29.613281 C 129.792969 29.589844 129.730469 29.554688 129.667969 29.523438 C 129.675781 29.503906 129.679688 29.484375 129.683594 29.460938 C 129.890625 29.5 130.105469 29.511719 130.304688 29.578125 C 131.457031 29.988281 132.609375 30.398438 133.757812 30.828125 C 134.851562 31.238281 135.9375 31.664062 137.023438 32.097656 C 137.269531 32.195312 137.5 32.332031 137.742188 32.453125 C 137.726562 32.488281 137.714844 32.523438 137.703125 32.558594 Z M 137.703125 32.558594 " fill-opacity="1" fill-rule="nonzero"/><path fill="#000000" d="M 126.398438 34.03125 C 126.273438 34.003906 126.140625 34 126.027344 33.953125 C 125.410156 33.707031 124.792969 33.453125 124.179688 33.199219 C 122.570312 32.523438 120.953125 31.871094 119.277344 31.386719 C 119.152344 31.351562 119.019531 31.339844 118.894531 31.304688 C 118.855469 31.296875 118.824219 31.253906 118.789062 31.226562 C 118.824219 31.191406 118.859375 31.125 118.898438 31.121094 C 119.007812 31.113281 119.128906 31.113281 119.234375 31.144531 C 120.1875 31.4375 121.15625 31.6875 122.082031 32.046875 C 123.4375 32.570312 124.761719 33.167969 126.097656 33.738281 C 126.210938 33.785156 126.316406 33.859375 126.425781 33.921875 C 126.417969 33.960938 126.40625 33.996094 126.398438 34.03125 Z M 126.398438 34.03125 " fill-opacity="1" fill-rule="nonzero"/><path fill="#000000" d="M 135.34375 36.878906 C 135.222656 36.851562 135.097656 36.835938 134.984375 36.792969 C 133.773438 36.320312 132.574219 35.832031 131.359375 35.378906 C 130.410156 35.023438 129.449219 34.707031 128.488281 34.375 C 128.359375 34.332031 128.21875 34.328125 128.085938 34.285156 C 127.996094 34.257812 127.914062 34.199219 127.824219 34.152344 C 127.835938 34.121094 127.84375 34.085938 127.851562 34.054688 C 128.03125 34.074219 128.210938 34.078125 128.386719 34.117188 C 129.660156 34.382812 130.878906 34.835938 132.078125 35.332031 C 133.058594 35.734375 134.023438 36.179688 134.992188 36.613281 C 135.121094 36.667969 135.242188 36.75 135.363281 36.824219 C 135.355469 36.84375 135.351562 36.863281 135.34375 36.878906 Z M 135.34375 36.878906 " fill-opacity="1" fill-rule="nonzero"/><path fill="#000000" d="M 136.949219 41.65625 C 137.222656 41.378906 137.457031 41.355469 137.714844 41.507812 C 137.992188 41.675781 138.273438 41.835938 138.550781 42.007812 C 138.625 42.050781 138.683594 42.117188 138.757812 42.183594 C 138.605469 42.347656 138.425781 42.453125 138.246094 42.363281 C 137.8125 42.152344 137.398438 41.902344 136.949219 41.65625 Z M 136.949219 41.65625 " fill-opacity="1" fill-rule="nonzero"/><path fill="#000000" d="M 117.0625 23.335938 C 116.941406 23.4375 116.828125 23.542969 116.703125 23.636719 C 114.910156 24.910156 113.117188 26.1875 111.316406 27.453125 C 110.042969 28.351562 108.71875 29.175781 107.320312 29.871094 C 106.972656 30.042969 106.609375 30.1875 106.242188 30.320312 C 106.136719 30.359375 105.996094 30.304688 105.871094 30.292969 C 105.957031 30.210938 106.03125 30.101562 106.132812 30.050781 C 106.601562 29.804688 107.085938 29.597656 107.546875 29.34375 C 109.652344 28.175781 111.613281 26.785156 113.574219 25.394531 C 114.433594 24.78125 115.300781 24.183594 116.171875 23.585938 C 116.332031 23.472656 116.5 23.375 116.679688 23.296875 C 116.785156 23.253906 116.910156 23.261719 117.03125 23.25 C 117.039062 23.277344 117.050781 23.308594 117.0625 23.335938 Z M 117.0625 23.335938 " fill-opacity="1" fill-rule="nonzero"/><path fill="#000000" d="M 106.417969 31.203125 C 106.566406 31.085938 106.710938 30.960938 106.867188 30.855469 C 108.359375 29.851562 109.894531 28.917969 111.519531 28.160156 C 113.429688 27.265625 115.371094 26.4375 117.300781 25.582031 C 117.484375 25.5 117.679688 25.445312 117.875 25.390625 C 117.953125 25.371094 118.039062 25.386719 118.121094 25.386719 C 118.128906 25.417969 118.140625 25.445312 118.148438 25.472656 C 118.046875 25.539062 117.949219 25.617188 117.839844 25.667969 C 117.03125 26.023438 116.21875 26.371094 115.40625 26.722656 C 112.753906 27.875 110.167969 29.160156 107.726562 30.722656 C 107.429688 30.914062 107.101562 31.066406 106.78125 31.222656 C 106.683594 31.269531 106.5625 31.269531 106.453125 31.289062 C 106.441406 31.261719 106.429688 31.230469 106.417969 31.203125 Z M 106.417969 31.203125 " fill-opacity="1" fill-rule="nonzero"/><path fill="#000000" d="M 114.582031 32.285156 C 114.484375 32.335938 114.402344 32.390625 114.316406 32.421875 C 112.90625 32.941406 111.5 33.460938 110.089844 33.972656 C 109.914062 34.035156 109.734375 34.097656 109.550781 34.125 C 109.453125 34.140625 109.339844 34.082031 109.234375 34.054688 C 109.289062 33.96875 109.324219 33.839844 109.40625 33.796875 C 109.851562 33.566406 110.292969 33.320312 110.761719 33.140625 C 111.78125 32.75 112.816406 32.386719 113.847656 32.023438 C 114.203125 31.898438 114.339844 31.953125 114.582031 32.285156 Z M 114.582031 32.285156 " fill-opacity="1" fill-rule="nonzero"/><g fill="#ffffee" fill-opacity="1"><g transform="translate(0.118259, 42.784422)"><g><path d="M 28.078125 -21.703125 C 28.410156 -21.703125 28.632812 -21.625 28.75 -21.46875 C 28.863281 -21.3125 28.910156 -21.128906 28.890625 -20.921875 C 28.878906 -20.722656 28.820312 -20.515625 28.71875 -20.296875 C 28.625 -20.085938 28.5 -19.90625 28.34375 -19.75 C 27.601562 -19.695312 26.882812 -19.664062 26.1875 -19.65625 C 25.488281 -19.644531 24.804688 -19.625 24.140625 -19.59375 C 23.785156 -17.9375 23.394531 -16.25 22.96875 -14.53125 C 22.550781 -12.8125 22.054688 -11.148438 21.484375 -9.546875 C 20.910156 -7.941406 20.25 -6.429688 19.5 -5.015625 C 18.75 -3.609375 17.859375 -2.378906 16.828125 -1.328125 C 15.796875 -0.285156 14.597656 0.535156 13.234375 1.140625 C 11.867188 1.753906 10.3125 2.0625 8.5625 2.0625 C 6.957031 2.0625 5.570312 1.757812 4.40625 1.15625 C 3.25 0.5625 2.320312 -0.21875 1.625 -1.1875 C 0.925781 -2.15625 0.453125 -3.25 0.203125 -4.46875 C -0.0351562 -5.6875 -0.0546875 -6.921875 0.140625 -8.171875 C 0.347656 -9.421875 0.773438 -10.613281 1.421875 -11.75 C 2.078125 -12.882812 2.96875 -13.859375 4.09375 -14.671875 C 4.550781 -13.171875 5.28125 -12.113281 6.28125 -11.5 C 7.289062 -10.882812 8.394531 -10.578125 9.59375 -10.578125 C 10.882812 -10.578125 12.082031 -10.8125 13.1875 -11.28125 C 14.300781 -11.757812 15.316406 -12.40625 16.234375 -13.21875 C 17.148438 -14.03125 17.988281 -14.972656 18.75 -16.046875 C 19.519531 -17.117188 20.222656 -18.253906 20.859375 -19.453125 C 19.921875 -19.398438 19.144531 -19.316406 18.53125 -19.203125 C 17.914062 -19.085938 17.507812 -18.898438 17.3125 -18.640625 C 17.15625 -18.410156 17.050781 -18.472656 17 -18.828125 C 16.976562 -19.054688 16.925781 -19.375 16.84375 -19.78125 C 16.769531 -20.195312 16.738281 -20.597656 16.75 -20.984375 C 16.757812 -21.378906 16.859375 -21.71875 17.046875 -22 C 17.242188 -22.28125 17.582031 -22.410156 18.0625 -22.390625 L 22.15625 -22.046875 C 22.738281 -23.335938 23.28125 -24.613281 23.78125 -25.875 C 24.28125 -27.144531 24.742188 -28.3125 25.171875 -29.375 C 25.273438 -29.601562 25.414062 -29.742188 25.59375 -29.796875 C 25.769531 -29.847656 25.941406 -29.847656 26.109375 -29.796875 C 26.273438 -29.742188 26.398438 -29.632812 26.484375 -29.46875 C 26.578125 -29.300781 26.585938 -29.117188 26.515625 -28.921875 C 26.160156 -27.929688 25.828125 -26.835938 25.515625 -25.640625 C 25.210938 -24.441406 24.921875 -23.179688 24.640625 -21.859375 C 25.253906 -21.804688 25.851562 -21.765625 26.4375 -21.734375 C 27.019531 -21.710938 27.566406 -21.703125 28.078125 -21.703125 Z M 32.25 -33.390625 C 32.289062 -33.160156 32.363281 -32.878906 32.46875 -32.546875 C 32.570312 -32.210938 32.625 -31.878906 32.625 -31.546875 C 32.625 -31.222656 32.539062 -30.9375 32.375 -30.6875 C 32.207031 -30.445312 31.882812 -30.316406 31.40625 -30.296875 C 30.4375 -30.222656 29.300781 -30.203125 28 -30.234375 C 26.695312 -30.273438 25.335938 -30.273438 23.921875 -30.234375 C 22.515625 -30.203125 21.125 -30.09375 19.75 -29.90625 C 18.375 -29.726562 17.128906 -29.378906 16.015625 -28.859375 C 14.910156 -28.335938 14 -27.617188 13.28125 -26.703125 C 12.570312 -25.785156 12.195312 -24.578125 12.15625 -23.078125 C 12.101562 -21.953125 12.363281 -20.9375 12.9375 -20.03125 C 13.507812 -19.132812 14.378906 -18.492188 15.546875 -18.109375 C 14.554688 -17.367188 13.453125 -16.800781 12.234375 -16.40625 C 11.023438 -16.007812 9.828125 -15.800781 8.640625 -15.78125 C 7.179688 -15.75 5.960938 -15.988281 4.984375 -16.5 C 4.003906 -17.007812 3.253906 -17.675781 2.734375 -18.5 C 2.210938 -19.332031 1.910156 -20.257812 1.828125 -21.28125 C 1.753906 -22.300781 1.890625 -23.328125 2.234375 -24.359375 C 2.578125 -25.390625 3.109375 -26.367188 3.828125 -27.296875 C 4.554688 -28.222656 5.484375 -28.992188 6.609375 -29.609375 C 7.960938 -30.367188 9.472656 -30.898438 11.140625 -31.203125 C 12.804688 -31.515625 14.503906 -31.707031 16.234375 -31.78125 C 17.960938 -31.863281 19.675781 -31.878906 21.375 -31.828125 C 23.070312 -31.773438 24.628906 -31.765625 26.046875 -31.796875 C 27.472656 -31.835938 28.703125 -31.976562 29.734375 -32.21875 C 30.765625 -32.46875 31.5 -32.910156 31.9375 -33.546875 C 32.0625 -33.773438 32.164062 -33.722656 32.25 -33.390625 Z M 32.25 -33.390625 "/></g></g></g><g fill="#ffffee" fill-opacity="1"><g transform="translate(27.242965, 42.784422)"><g><path d="M 19.21875 -13.21875 C 18.90625 -12.65625 18.550781 -12.070312 18.15625 -11.46875 C 17.769531 -10.875 17.328125 -10.328125 16.828125 -9.828125 C 16.328125 -9.335938 15.769531 -8.925781 15.15625 -8.59375 C 14.550781 -8.257812 13.894531 -8.09375 13.1875 -8.09375 C 12.800781 -8.09375 12.457031 -8.171875 12.15625 -8.328125 C 11.769531 -7.515625 11.28125 -6.625 10.6875 -5.65625 C 10.101562 -4.6875 9.429688 -3.78125 8.671875 -2.9375 C 7.910156 -2.101562 7.0625 -1.40625 6.125 -0.84375 C 5.195312 -0.28125 4.195312 -0.0078125 3.125 -0.03125 C 1.9375 -0.0625 0.976562 -0.40625 0.25 -1.0625 C -0.476562 -1.726562 -1 -2.601562 -1.3125 -3.6875 C -1.632812 -4.769531 -1.753906 -6 -1.671875 -7.375 C -1.597656 -8.75 -1.363281 -10.148438 -0.96875 -11.578125 C -0.570312 -13.003906 -0.03125 -14.390625 0.65625 -15.734375 C 1.34375 -17.085938 2.132812 -18.285156 3.03125 -19.328125 C 3.9375 -20.367188 4.941406 -21.1875 6.046875 -21.78125 C 7.160156 -22.382812 8.34375 -22.660156 9.59375 -22.609375 C 10.40625 -22.566406 11.128906 -22.359375 11.765625 -21.984375 C 12.398438 -21.617188 12.894531 -21.128906 13.25 -20.515625 C 13.613281 -19.898438 13.796875 -19.175781 13.796875 -18.34375 C 13.796875 -17.519531 13.566406 -16.613281 13.109375 -15.625 C 12.828125 -15.570312 12.582031 -15.515625 12.375 -15.453125 C 12.175781 -15.390625 12.007812 -15.359375 11.875 -15.359375 C 11.75 -15.359375 11.65625 -15.421875 11.59375 -15.546875 C 11.53125 -15.671875 11.5 -15.890625 11.5 -16.203125 C 11.78125 -16.753906 11.832031 -17.257812 11.65625 -17.71875 C 11.476562 -18.175781 11.222656 -18.394531 10.890625 -18.375 C 10.398438 -18.320312 9.945312 -17.96875 9.53125 -17.3125 C 9.113281 -16.664062 8.75 -15.90625 8.4375 -15.03125 C 8.132812 -14.15625 7.925781 -13.25 7.8125 -12.3125 C 7.695312 -11.382812 7.710938 -10.613281 7.859375 -10 C 8.015625 -9.394531 8.328125 -9.035156 8.796875 -8.921875 C 9.273438 -8.804688 9.957031 -9.128906 10.84375 -9.890625 C 10.695312 -10.347656 10.628906 -10.828125 10.640625 -11.328125 C 10.648438 -11.828125 10.71875 -12.289062 10.84375 -12.71875 C 11.101562 -13.632812 11.453125 -14.300781 11.890625 -14.71875 C 12.335938 -15.144531 12.753906 -15.34375 13.140625 -15.3125 C 13.523438 -15.289062 13.804688 -15.054688 13.984375 -14.609375 C 14.160156 -14.160156 14.125 -13.519531 13.875 -12.6875 C 13.71875 -12.175781 13.539062 -11.660156 13.34375 -11.140625 C 13.15625 -10.617188 12.945312 -10.085938 12.71875 -9.546875 C 12.820312 -9.472656 12.976562 -9.4375 13.1875 -9.4375 C 13.738281 -9.4375 14.25 -9.578125 14.71875 -9.859375 C 15.195312 -10.140625 15.632812 -10.488281 16.03125 -10.90625 C 16.425781 -11.320312 16.78125 -11.78125 17.09375 -12.28125 C 17.414062 -12.78125 17.691406 -13.242188 17.921875 -13.671875 Z M 19.21875 -13.21875 "/></g></g></g><g fill="#ffffee" fill-opacity="1"><g transform="translate(45.389784, 42.784422)"><g><path d="M 15.125 -13.1875 C 14.769531 -12.519531 14.367188 -11.726562 13.921875 -10.8125 C 13.472656 -9.894531 12.984375 -8.9375 12.453125 -7.9375 C 11.921875 -6.945312 11.34375 -5.960938 10.71875 -4.984375 C 10.09375 -4.003906 9.421875 -3.128906 8.703125 -2.359375 C 7.992188 -1.597656 7.222656 -0.972656 6.390625 -0.484375 C 5.566406 -0.00390625 4.6875 0.21875 3.75 0.1875 C 2.570312 0.164062 1.613281 -0.171875 0.875 -0.828125 C 0.132812 -1.492188 -0.410156 -2.367188 -0.765625 -3.453125 C -1.117188 -4.535156 -1.300781 -5.765625 -1.3125 -7.140625 C -1.332031 -8.515625 -1.191406 -9.914062 -0.890625 -11.34375 C -0.597656 -12.769531 -0.15625 -14.164062 0.4375 -15.53125 C 1.039062 -16.894531 1.753906 -18.109375 2.578125 -19.171875 C 3.410156 -20.242188 4.351562 -21.101562 5.40625 -21.75 C 6.457031 -22.40625 7.597656 -22.71875 8.828125 -22.6875 C 9.515625 -22.6875 10.160156 -22.566406 10.765625 -22.328125 C 11.378906 -22.085938 11.882812 -21.707031 12.28125 -21.1875 C 12.675781 -20.664062 12.929688 -20.007812 13.046875 -19.21875 C 13.160156 -18.425781 13.066406 -17.46875 12.765625 -16.34375 C 12.203125 -16.21875 11.863281 -16.210938 11.75 -16.328125 C 11.632812 -16.441406 11.578125 -16.71875 11.578125 -17.15625 C 11.578125 -17.664062 11.5 -17.988281 11.34375 -18.125 C 11.1875 -18.269531 11.007812 -18.351562 10.8125 -18.375 C 10.457031 -18.394531 10.109375 -18.210938 9.765625 -17.828125 C 9.421875 -17.453125 9.113281 -16.984375 8.84375 -16.421875 C 8.570312 -15.867188 8.359375 -15.253906 8.203125 -14.578125 C 8.054688 -13.898438 8.007812 -13.273438 8.0625 -12.703125 C 8.113281 -12.128906 8.285156 -11.65625 8.578125 -11.28125 C 8.867188 -10.914062 9.320312 -10.734375 9.9375 -10.734375 C 10.570312 -10.734375 11.257812 -10.976562 12 -11.46875 C 12.738281 -11.96875 13.375 -12.703125 13.90625 -13.671875 Z M 15.125 -13.1875 "/></g></g></g><g fill="#ffffee" fill-opacity="1"><g transform="translate(59.525206, 42.784422)"><g><path d="M 24.875 -13.1875 C 24.613281 -12.519531 24.316406 -11.734375 23.984375 -10.828125 C 23.660156 -9.921875 23.28125 -8.976562 22.84375 -8 C 22.414062 -7.019531 21.9375 -6.050781 21.40625 -5.09375 C 20.882812 -4.144531 20.304688 -3.289062 19.671875 -2.53125 C 19.035156 -1.78125 18.34375 -1.171875 17.59375 -0.703125 C 16.84375 -0.234375 16.019531 0 15.125 0 C 14.0625 0 13.1875 -0.148438 12.5 -0.453125 C 11.8125 -0.765625 11.257812 -1.164062 10.84375 -1.65625 C 10.4375 -2.15625 10.15625 -2.742188 10 -3.421875 C 9.851562 -4.097656 9.78125 -4.804688 9.78125 -5.546875 C 9.375 -4.804688 8.941406 -4.097656 8.484375 -3.421875 C 8.023438 -2.742188 7.523438 -2.148438 6.984375 -1.640625 C 6.453125 -1.128906 5.875 -0.726562 5.25 -0.4375 C 4.625 -0.144531 3.96875 0 3.28125 0 C 1.851562 -0.0195312 0.753906 -0.289062 -0.015625 -0.8125 C -0.796875 -1.34375 -1.34375 -2.015625 -1.65625 -2.828125 C -1.976562 -3.640625 -2.113281 -4.554688 -2.0625 -5.578125 C -2.007812 -6.597656 -1.875 -7.625 -1.65625 -8.65625 C -1.445312 -9.6875 -1.191406 -10.671875 -0.890625 -11.609375 C -0.597656 -12.554688 -0.363281 -13.347656 -0.1875 -13.984375 C -0.0078125 -14.671875 0.0820312 -15.359375 0.09375 -16.046875 C 0.101562 -16.734375 0.132812 -17.367188 0.1875 -17.953125 C 0.539062 -18.898438 1.003906 -19.664062 1.578125 -20.25 C 2.148438 -20.832031 2.769531 -21.265625 3.4375 -21.546875 C 4.101562 -21.828125 4.78125 -21.976562 5.46875 -22 C 6.15625 -22.03125 6.796875 -21.96875 7.390625 -21.8125 C 7.992188 -21.65625 8.515625 -21.414062 8.953125 -21.09375 C 9.398438 -20.78125 9.703125 -20.4375 9.859375 -20.0625 C 9.546875 -19.695312 9.238281 -19.191406 8.9375 -18.546875 C 8.632812 -17.898438 8.351562 -17.222656 8.09375 -16.515625 C 7.84375 -15.816406 7.613281 -15.128906 7.40625 -14.453125 C 7.207031 -13.785156 7.066406 -13.257812 6.984375 -12.875 C 6.835938 -12.164062 6.859375 -11.644531 7.046875 -11.3125 C 7.234375 -10.976562 7.519531 -10.785156 7.90625 -10.734375 C 8.289062 -10.679688 8.710938 -10.765625 9.171875 -10.984375 C 9.628906 -11.203125 10.046875 -11.5 10.421875 -11.875 C 10.628906 -12.0625 10.804688 -12.25 10.953125 -12.4375 C 11.109375 -12.625 11.253906 -12.820312 11.390625 -13.03125 L 11.65625 -13.984375 C 11.851562 -14.640625 11.953125 -15.3125 11.953125 -16 C 11.953125 -16.6875 11.976562 -17.328125 12.03125 -17.921875 C 12.03125 -18.523438 12.234375 -19.082031 12.640625 -19.59375 C 13.046875 -20.101562 13.566406 -20.539062 14.203125 -20.90625 C 14.847656 -21.28125 15.550781 -21.5625 16.3125 -21.75 C 17.070312 -21.945312 17.804688 -22.023438 18.515625 -21.984375 C 19.234375 -21.941406 19.882812 -21.769531 20.46875 -21.46875 C 21.0625 -21.164062 21.484375 -20.695312 21.734375 -20.0625 C 21.429688 -19.695312 21.125 -19.191406 20.8125 -18.546875 C 20.507812 -17.898438 20.222656 -17.222656 19.953125 -16.515625 C 19.691406 -15.816406 19.460938 -15.128906 19.265625 -14.453125 C 19.078125 -13.785156 18.945312 -13.257812 18.875 -12.875 C 18.71875 -12.164062 18.734375 -11.644531 18.921875 -11.3125 C 19.117188 -10.976562 19.398438 -10.785156 19.765625 -10.734375 C 20.140625 -10.679688 20.5625 -10.765625 21.03125 -10.984375 C 21.5 -11.203125 21.925781 -11.5 22.3125 -11.875 C 22.84375 -12.4375 23.273438 -13.035156 23.609375 -13.671875 Z M 24.875 -13.1875 "/></g></g></g><g fill="#ffffee" fill-opacity="1"><g transform="translate(83.364391, 42.784422)"><g><path d="M 8.171875 -20.890625 C 8.117188 -20.203125 8.320312 -19.628906 8.78125 -19.171875 C 9.238281 -18.710938 9.8125 -18.273438 10.5 -17.859375 C 11.1875 -17.441406 11.929688 -16.992188 12.734375 -16.515625 C 13.535156 -16.046875 14.285156 -15.453125 14.984375 -14.734375 C 15.691406 -14.023438 16.265625 -13.140625 16.703125 -12.078125 C 17.148438 -11.023438 17.363281 -9.722656 17.34375 -8.171875 C 17.289062 -6.773438 16.945312 -5.535156 16.3125 -4.453125 C 15.675781 -3.367188 14.851562 -2.453125 13.84375 -1.703125 C 12.84375 -0.953125 11.710938 -0.382812 10.453125 0 C 9.191406 0.382812 7.910156 0.5625 6.609375 0.53125 C 5.390625 0.507812 4.207031 0.296875 3.0625 -0.109375 C 1.914062 -0.515625 0.90625 -1.097656 0.03125 -1.859375 C -0.832031 -2.628906 -1.492188 -3.570312 -1.953125 -4.6875 C -2.410156 -5.8125 -2.570312 -7.101562 -2.4375 -8.5625 C -2.34375 -9.65625 -2.023438 -10.71875 -1.484375 -11.75 C -0.953125 -12.78125 -0.164062 -13.703125 0.875 -14.515625 C 0.925781 -14.566406 1.003906 -14.617188 1.109375 -14.671875 C 1.410156 -15.203125 1.769531 -15.832031 2.1875 -16.5625 C 2.613281 -17.289062 3.039062 -18.03125 3.46875 -18.78125 C 3.90625 -19.53125 4.304688 -20.226562 4.671875 -20.875 C 5.046875 -21.53125 5.335938 -22.035156 5.546875 -22.390625 C 5.691406 -22.796875 5.84375 -23.1875 6 -23.5625 C 6.15625 -23.945312 6.347656 -24.273438 6.578125 -24.546875 C 6.804688 -24.816406 7.082031 -25.015625 7.40625 -25.140625 C 7.738281 -25.265625 8.160156 -25.265625 8.671875 -25.140625 C 9.203125 -25.015625 9.566406 -24.710938 9.765625 -24.234375 C 9.972656 -23.765625 9.914062 -23.316406 9.59375 -22.890625 C 9.3125 -22.910156 9.082031 -22.863281 8.90625 -22.75 C 8.726562 -22.632812 8.585938 -22.46875 8.484375 -22.25 C 8.378906 -22.03125 8.300781 -21.800781 8.25 -21.5625 C 8.195312 -21.320312 8.171875 -21.097656 8.171875 -20.890625 Z M 2.4375 -13.328125 C 2.207031 -12.722656 2.21875 -12.222656 2.46875 -11.828125 C 2.726562 -11.429688 3.113281 -11.132812 3.625 -10.9375 C 4.132812 -10.75 4.710938 -10.660156 5.359375 -10.671875 C 6.015625 -10.691406 6.632812 -10.820312 7.21875 -11.0625 C 7.800781 -11.300781 8.289062 -11.648438 8.6875 -12.109375 C 9.082031 -12.566406 9.28125 -13.140625 9.28125 -13.828125 C 9.28125 -14.359375 9.113281 -14.84375 8.78125 -15.28125 C 8.457031 -15.71875 8.097656 -16.171875 7.703125 -16.640625 C 7.304688 -17.109375 6.925781 -17.625 6.5625 -18.1875 C 6.207031 -18.75 6.003906 -19.421875 5.953125 -20.203125 C 5.828125 -20.023438 5.632812 -19.710938 5.375 -19.265625 C 5.125 -18.828125 4.835938 -18.328125 4.515625 -17.765625 C 4.203125 -17.203125 3.875 -16.617188 3.53125 -16.015625 C 3.1875 -15.421875 2.890625 -14.882812 2.640625 -14.40625 C 2.816406 -14.070312 2.75 -13.710938 2.4375 -13.328125 Z M 2.4375 -13.328125 "/></g></g></g><g fill="#000000" fill-opacity="1"><g transform="translate(56.391963, 59.454951)"><g><path d="M 2.835938 0 L 2.835938 -15.039062 L 0.402344 -15.039062 L 0.402344 -17.453125 L 2.835938 -17.453125 L 2.835938 -19.601562 C 2.835938 -20.722656 3.011719 -21.648438 3.363281 -22.378906 C 3.71875 -23.113281 4.246094 -23.660156 4.949219 -24.015625 C 5.65625 -24.375 6.546875 -24.554688 7.621094 -24.554688 C 7.945312 -24.554688 8.269531 -24.542969 8.59375 -24.519531 C 8.917969 -24.5 9.1875 -24.46875 9.398438 -24.4375 L 9.398438 -22.070312 C 9.21875 -22.09375 9.019531 -22.109375 8.804688 -22.121094 C 8.585938 -22.132812 8.363281 -22.136719 8.140625 -22.136719 C 7.335938 -22.136719 6.730469 -21.925781 6.328125 -21.507812 C 5.925781 -21.089844 5.722656 -20.449219 5.722656 -19.585938 L 5.722656 -17.453125 L 9.316406 -17.453125 L 9.316406 -15.039062 L 5.757812 -15.039062 L 5.757812 0 Z M 2.835938 0 "/></g></g></g><g fill="#000000" fill-opacity="1"><g transform="translate(66.830393, 59.454951)"><g><path d="M 9.078125 0.335938 C 7.414062 0.335938 5.976562 -0.0351562 4.773438 -0.773438 C 3.570312 -1.511719 2.648438 -2.554688 2.003906 -3.902344 C 1.363281 -5.25 1.039062 -6.835938 1.039062 -8.660156 L 1.039062 -8.675781 C 1.039062 -10.476562 1.363281 -12.066406 2.015625 -13.433594 C 2.664062 -14.804688 3.574219 -15.875 4.75 -16.640625 C 5.925781 -17.40625 7.304688 -17.789062 8.894531 -17.789062 C 10.484375 -17.789062 11.851562 -17.425781 13 -16.691406 C 14.144531 -15.957031 15.027344 -14.933594 15.640625 -13.613281 C 16.257812 -12.292969 16.566406 -10.757812 16.566406 -9.011719 L 16.566406 -7.9375 L 2.5 -7.9375 L 2.5 -10.222656 L 15.121094 -10.222656 L 13.644531 -8.105469 L 13.644531 -9.230469 C 13.644531 -10.585938 13.441406 -11.703125 13.03125 -12.585938 C 12.625 -13.472656 12.0625 -14.128906 11.34375 -14.558594 C 10.628906 -14.992188 9.808594 -15.207031 8.878906 -15.207031 C 7.949219 -15.207031 7.117188 -14.980469 6.378906 -14.527344 C 5.640625 -14.074219 5.058594 -13.402344 4.632812 -12.511719 C 4.207031 -11.621094 3.996094 -10.527344 3.996094 -9.230469 L 3.996094 -8.105469 C 3.996094 -6.875 4.203125 -5.824219 4.625 -4.949219 C 5.042969 -4.078125 5.640625 -3.410156 6.410156 -2.945312 C 7.183594 -2.480469 8.09375 -2.25 9.148438 -2.25 C 9.886719 -2.25 10.546875 -2.359375 11.128906 -2.585938 C 11.710938 -2.808594 12.195312 -3.117188 12.585938 -3.507812 C 12.980469 -3.898438 13.257812 -4.347656 13.425781 -4.851562 L 13.476562 -5 L 16.347656 -5 L 16.3125 -4.832031 C 16.167969 -4.117188 15.890625 -3.445312 15.484375 -2.820312 C 15.074219 -2.191406 14.550781 -1.640625 13.914062 -1.167969 C 13.277344 -0.691406 12.546875 -0.320312 11.730469 -0.0585938 C 10.914062 0.203125 10.03125 0.335938 9.078125 0.335938 Z M 9.078125 0.335938 "/></g></g></g><g fill="#000000" fill-opacity="1"><g transform="translate(84.434755, 59.454951)"><g><path d="M 9.078125 0.335938 C 7.414062 0.335938 5.976562 -0.0351562 4.773438 -0.773438 C 3.570312 -1.511719 2.648438 -2.554688 2.003906 -3.902344 C 1.363281 -5.25 1.039062 -6.835938 1.039062 -8.660156 L 1.039062 -8.675781 C 1.039062 -10.476562 1.363281 -12.066406 2.015625 -13.433594 C 2.664062 -14.804688 3.574219 -15.875 4.75 -16.640625 C 5.925781 -17.40625 7.304688 -17.789062 8.894531 -17.789062 C 10.484375 -17.789062 11.851562 -17.425781 13 -16.691406 C 14.144531 -15.957031 15.027344 -14.933594 15.640625 -13.613281 C 16.257812 -12.292969 16.566406 -10.757812 16.566406 -9.011719 L 16.566406 -7.9375 L 2.5 -7.9375 L 2.5 -10.222656 L 15.121094 -10.222656 L 13.644531 -8.105469 L 13.644531 -9.230469 C 13.644531 -10.585938 13.441406 -11.703125 13.03125 -12.585938 C 12.625 -13.472656 12.0625 -14.128906 11.34375 -14.558594 C 10.628906 -14.992188 9.808594 -15.207031 8.878906 -15.207031 C 7.949219 -15.207031 7.117188 -14.980469 6.378906 -14.527344 C 5.640625 -14.074219 5.058594 -13.402344 4.632812 -12.511719 C 4.207031 -11.621094 3.996094 -10.527344 3.996094 -9.230469 L 3.996094 -8.105469 C 3.996094 -6.875 4.203125 -5.824219 4.625 -4.949219 C 5.042969 -4.078125 5.640625 -3.410156 6.410156 -2.945312 C 7.183594 -2.480469 8.09375 -2.25 9.148438 -2.25 C 9.886719 -2.25 10.546875 -2.359375 11.128906 -2.585938 C 11.710938 -2.808594 12.195312 -3.117188 12.585938 -3.507812 C 12.980469 -3.898438 13.257812 -4.347656 13.425781 -4.851562 L 13.476562 -5 L 16.347656 -5 L 16.3125 -4.832031 C 16.167969 -4.117188 15.890625 -3.445312 15.484375 -2.820312 C 15.074219 -2.191406 14.550781 -1.640625 13.914062 -1.167969 C 13.277344 -0.691406 12.546875 -0.320312 11.730469 -0.0585938 C 10.914062 0.203125 10.03125 0.335938 9.078125 0.335938 Z M 9.078125 0.335938 "/></g></g></g><g fill="#000000" fill-opacity="1"><g transform="translate(102.039117, 59.454951)"><g><path d="M 8.457031 0.335938 C 6.972656 0.335938 5.671875 -0.0351562 4.558594 -0.78125 C 3.445312 -1.523438 2.578125 -2.578125 1.964844 -3.9375 C 1.347656 -5.296875 1.039062 -6.890625 1.039062 -8.726562 L 1.039062 -8.746094 C 1.039062 -10.578125 1.351562 -12.171875 1.972656 -13.527344 C 2.59375 -14.882812 3.457031 -15.929688 4.566406 -16.675781 C 5.671875 -17.417969 6.953125 -17.789062 8.410156 -17.789062 C 9.238281 -17.789062 10.003906 -17.660156 10.714844 -17.394531 C 11.425781 -17.132812 12.0625 -16.757812 12.621094 -16.273438 C 13.179688 -15.785156 13.640625 -15.207031 13.996094 -14.535156 L 14.066406 -14.535156 L 14.066406 -24.21875 L 16.984375 -24.21875 L 16.984375 0 L 14.066406 0 L 14.066406 -2.953125 L 13.996094 -2.953125 C 13.640625 -2.269531 13.1875 -1.6875 12.636719 -1.199219 C 12.089844 -0.714844 11.464844 -0.335938 10.765625 -0.0664062 C 10.066406 0.203125 9.296875 0.335938 8.457031 0.335938 Z M 9.03125 -2.25 C 10.015625 -2.25 10.886719 -2.515625 11.648438 -3.054688 C 12.410156 -3.589844 13.003906 -4.347656 13.433594 -5.320312 C 13.867188 -6.292969 14.082031 -7.429688 14.082031 -8.726562 L 14.082031 -8.746094 C 14.082031 -10.042969 13.863281 -11.175781 13.425781 -12.144531 C 12.992188 -13.109375 12.394531 -13.863281 11.640625 -14.398438 C 10.882812 -14.9375 10.015625 -15.207031 9.03125 -15.207031 C 8 -15.207031 7.109375 -14.941406 6.359375 -14.417969 C 5.609375 -13.890625 5.035156 -13.148438 4.632812 -12.183594 C 4.230469 -11.222656 4.027344 -10.074219 4.027344 -8.746094 L 4.027344 -8.726562 C 4.027344 -7.394531 4.230469 -6.242188 4.632812 -5.269531 C 5.035156 -4.296875 5.609375 -3.550781 6.359375 -3.03125 C 7.109375 -2.507812 8 -2.25 9.03125 -2.25 Z M 9.03125 -2.25 "/></g></g></g><g fill="#ffffee" fill-opacity="1"><g transform="translate(2.906465, 68.483156)"><g><path d="M 1.984375 0.15625 C 3.203125 0.15625 4.09375 -0.296875 4.09375 -1.390625 C 4.09375 -1.984375 3.71875 -2.40625 2.90625 -2.578125 L 2.21875 -2.734375 C 1.90625 -2.796875 1.765625 -2.953125 1.765625 -3.15625 C 1.765625 -3.484375 2.0625 -3.671875 2.5 -3.671875 C 2.953125 -3.671875 3.21875 -3.453125 3.21875 -3.0625 L 4.28125 -3.09375 C 4.28125 -3.9375 3.671875 -4.5 2.578125 -4.5 C 1.46875 -4.5 0.625 -4 0.625 -2.96875 C 0.625 -2.40625 1 -1.953125 1.71875 -1.78125 L 2.4375 -1.59375 C 2.78125 -1.515625 2.9375 -1.40625 2.9375 -1.171875 C 2.9375 -0.84375 2.625 -0.671875 2.09375 -0.671875 C 1.546875 -0.671875 1.265625 -0.921875 1.265625 -1.359375 L 0.171875 -1.3125 C 0.171875 -0.390625 0.78125 0.15625 1.984375 0.15625 Z M 1.984375 0.15625 "/></g></g></g><g fill="#ffffee" fill-opacity="1"><g transform="translate(7.503561, 68.483156)"><g><path d="M 2.21875 -3.53125 L 3.015625 -3.515625 L 3.203125 -4.390625 L 2.390625 -4.375 L 2.484375 -4.78125 L 2.6875 -5.75 L 1.484375 -5.75 L 1.28125 -4.765625 L 1.1875 -4.375 L 0.59375 -4.390625 L 0.40625 -3.515625 L 1.015625 -3.53125 L 0.9375 -3.1875 L 0.515625 -1.234375 C 0.5 -1.109375 0.484375 -1 0.484375 -0.890625 C 0.484375 -0.328125 0.828125 0 1.578125 0 L 2.28125 0 L 2.484375 -0.96875 L 2.078125 -0.96875 C 1.84375 -0.96875 1.734375 -1.03125 1.734375 -1.21875 C 1.734375 -1.265625 1.75 -1.328125 1.765625 -1.453125 L 2.140625 -3.15625 Z M 2.21875 -3.53125 "/></g></g></g><g fill="#ffffee" fill-opacity="1"><g transform="translate(10.500187, 68.483156)"><g><path d="M 2.796875 -4.5 C 1.578125 -4.5 0.90625 -4.0625 0.65625 -3.09375 L 1.75 -3.0625 C 1.890625 -3.484375 2.140625 -3.640625 2.640625 -3.640625 C 3.046875 -3.640625 3.265625 -3.515625 3.265625 -3.203125 C 3.265625 -3.171875 3.265625 -3.140625 3.25 -3 L 3.203125 -2.8125 L 1.640625 -2.53125 C 0.6875 -2.375 0 -1.921875 0 -1.015625 C 0 -0.328125 0.546875 0.125 1.390625 0.125 C 1.96875 0.125 2.46875 -0.109375 2.8125 -0.5 L 2.8125 0 L 3.9375 0 C 3.90625 -0.09375 3.890625 -0.203125 3.890625 -0.328125 C 3.890625 -0.5 3.90625 -0.6875 3.953125 -0.921875 L 4.375 -2.859375 C 4.40625 -3.015625 4.4375 -3.1875 4.4375 -3.3125 C 4.4375 -4.078125 3.859375 -4.5 2.796875 -4.5 Z M 1.84375 -0.765625 C 1.390625 -0.765625 1.21875 -0.9375 1.21875 -1.203125 C 1.21875 -1.546875 1.453125 -1.75 1.90625 -1.84375 L 3.0625 -2.0625 L 2.953125 -1.5625 C 2.765625 -1.03125 2.328125 -0.765625 1.84375 -0.765625 Z M 1.84375 -0.765625 "/></g></g></g><g fill="#ffffee" fill-opacity="1"><g transform="translate(15.242006, 68.483156)"><g><path d="M 2.09375 -1.3125 L 2.0625 -1.921875 L 1.734375 -4.390625 L 0.515625 -4.390625 L 1.25 0.1875 L 1.171875 0.34375 C 1.015625 0.609375 0.828125 0.71875 0.46875 0.71875 L -0.109375 0.71875 L -0.328125 1.734375 L 0.671875 1.734375 C 1.375 1.734375 1.78125 1.484375 2.21875 0.71875 L 4.984375 -4.390625 L 3.65625 -4.390625 Z M 2.09375 -1.3125 "/></g></g></g><g fill="#ffffee" fill-opacity="1"><g transform="translate(19.932745, 68.483156)"><g/></g></g><g fill="#ffffee" fill-opacity="1"><g transform="translate(22.061031, 68.483156)"><g><path d="M 2.3125 -4.96875 L 2.53125 -6.0625 L 1.34375 -6.0625 L 1.109375 -4.96875 Z M 1.25 0 L 2.1875 -4.390625 L 0.984375 -4.390625 L 0.046875 0 Z M 1.25 0 "/></g></g></g><g fill="#ffffee" fill-opacity="1"><g transform="translate(24.28296, 68.483156)"><g><path d="M 3.359375 -4.5 C 2.796875 -4.5 2.40625 -4.28125 2.046875 -3.8125 L 2.15625 -4.390625 L 0.984375 -4.390625 L 0.046875 0 L 1.25 0 L 1.765625 -2.421875 C 1.921875 -3.046875 2.328125 -3.421875 2.828125 -3.421875 C 3.15625 -3.421875 3.34375 -3.265625 3.34375 -2.9375 C 3.34375 -2.828125 3.328125 -2.71875 3.296875 -2.609375 L 2.734375 0 L 3.9375 0 L 4.546875 -2.828125 C 4.578125 -2.984375 4.59375 -3.140625 4.59375 -3.28125 C 4.59375 -4.015625 4.15625 -4.5 3.359375 -4.5 Z M 3.359375 -4.5 "/></g></g></g><g fill="#ffffee" fill-opacity="1"><g transform="translate(29.203555, 68.483156)"><g><path d="M 3.390625 -5.09375 L 3.59375 -6.0625 L 2.890625 -6.0625 C 1.96875 -6.0625 1.46875 -5.640625 1.265625 -4.65625 L 1.203125 -4.375 L 0.59375 -4.390625 L 0.40625 -3.515625 L 1.03125 -3.53125 L 1 -3.359375 L 0.265625 0 L 1.46875 0 L 2.21875 -3.53125 L 3.046875 -3.515625 L 3.234375 -4.390625 L 2.40625 -4.375 L 2.453125 -4.59375 C 2.515625 -4.9375 2.71875 -5.09375 3.0625 -5.09375 Z M 3.390625 -5.09375 "/></g></g></g><g fill="#ffffee" fill-opacity="1"><g transform="translate(32.063969, 68.483156)"><g><path d="M 2.1875 0.140625 C 3.5625 0.140625 4.484375 -0.734375 4.75 -2.09375 C 4.78125 -2.28125 4.796875 -2.46875 4.796875 -2.625 C 4.796875 -3.734375 4.078125 -4.5 2.890625 -4.5 C 1.484375 -4.5 0.53125 -3.546875 0.296875 -2.265625 C 0.25 -2.09375 0.234375 -1.921875 0.234375 -1.75 C 0.234375 -0.640625 1 0.140625 2.1875 0.140625 Z M 2.25 -0.796875 C 1.6875 -0.796875 1.390625 -1.171875 1.390625 -1.765625 C 1.390625 -1.90625 1.40625 -2.03125 1.4375 -2.1875 C 1.578125 -3.015625 2.109375 -3.5625 2.78125 -3.5625 C 3.328125 -3.5625 3.625 -3.171875 3.625 -2.53125 C 3.625 -2.421875 3.625 -2.3125 3.609375 -2.1875 C 3.46875 -1.34375 2.953125 -0.796875 2.25 -0.796875 Z M 2.25 -0.796875 "/></g></g></g><g fill="#ffffee" fill-opacity="1"><g transform="translate(37.103746, 68.483156)"><g><path d="M 3.140625 -4.515625 C 2.6875 -4.515625 2.3125 -4.265625 2.015625 -3.8125 L 2.125 -4.390625 L 0.984375 -4.390625 L 0.046875 0 L 1.25 0 L 1.71875 -2.21875 C 1.921875 -2.984375 2.359375 -3.375 3.046875 -3.375 C 3.140625 -3.375 3.21875 -3.359375 3.296875 -3.34375 L 3.53125 -4.453125 C 3.421875 -4.5 3.28125 -4.515625 3.140625 -4.515625 Z M 3.140625 -4.515625 "/></g></g></g><g fill="#ffffee" fill-opacity="1"><g transform="translate(40.500489, 68.483156)"><g><path d="M 5.84375 -4.5 C 5.234375 -4.5 4.796875 -4.234375 4.4375 -3.65625 C 4.3125 -4.171875 3.890625 -4.5 3.296875 -4.5 C 2.78125 -4.5 2.390625 -4.296875 2.0625 -3.859375 L 2.15625 -4.390625 L 0.984375 -4.390625 L 0.046875 0 L 1.25 0 L 1.765625 -2.4375 C 1.921875 -3.046875 2.3125 -3.421875 2.75 -3.421875 C 3.078125 -3.421875 3.203125 -3.21875 3.203125 -2.9375 C 3.203125 -2.859375 3.203125 -2.78125 3.1875 -2.703125 L 2.609375 0 L 3.8125 0 L 4.328125 -2.421875 C 4.484375 -3.046875 4.875 -3.421875 5.328125 -3.421875 C 5.65625 -3.421875 5.78125 -3.21875 5.78125 -2.9375 C 5.78125 -2.859375 5.78125 -2.78125 5.75 -2.703125 L 5.1875 0 L 6.390625 0 L 6.984375 -2.875 C 7.03125 -3.015625 7.03125 -3.171875 7.03125 -3.296875 C 7.03125 -4.015625 6.578125 -4.5 5.84375 -4.5 Z M 5.84375 -4.5 "/></g></g></g><g fill="#ffffee" fill-opacity="1"><g transform="translate(47.864354, 68.483156)"><g><path d="M 4.609375 -1.84375 C 4.6875 -2.140625 4.71875 -2.421875 4.71875 -2.671875 C 4.71875 -3.875 3.9375 -4.5 2.8125 -4.5 C 1.53125 -4.5 0.609375 -3.671875 0.3125 -2.390625 C 0.265625 -2.171875 0.25 -1.953125 0.25 -1.765625 C 0.25 -0.6875 0.921875 0.140625 2.1875 0.140625 C 3.171875 0.140625 3.921875 -0.3125 4.375 -1.28125 L 3.203125 -1.359375 C 2.96875 -0.96875 2.671875 -0.796875 2.25 -0.796875 C 1.703125 -0.796875 1.390625 -1.125 1.390625 -1.671875 C 1.390625 -1.734375 1.390625 -1.78125 1.40625 -1.84375 Z M 2.734375 -3.625 C 3.234375 -3.625 3.546875 -3.328125 3.546875 -2.8125 C 3.546875 -2.765625 3.546875 -2.703125 3.546875 -2.65625 L 1.5625 -2.65625 C 1.75 -3.265625 2.1875 -3.625 2.734375 -3.625 Z M 2.734375 -3.625 "/></g></g></g><g fill="#ffffee" fill-opacity="1"><g transform="translate(52.827515, 68.483156)"><g><path d="M 3.6875 -3.828125 C 3.453125 -4.234375 3.046875 -4.5 2.484375 -4.5 C 1.40625 -4.5 0.578125 -3.65625 0.3125 -2.34375 C 0.25 -2.09375 0.234375 -1.859375 0.234375 -1.640625 C 0.234375 -0.515625 0.84375 0.140625 1.734375 0.140625 C 2.28125 0.140625 2.71875 -0.078125 3.078125 -0.515625 L 3 0 L 4.078125 0 L 5.359375 -6.0625 L 4.171875 -6.0625 Z M 2.15625 -0.890625 C 1.671875 -0.890625 1.390625 -1.265625 1.390625 -1.8125 C 1.390625 -1.953125 1.40625 -2.0625 1.4375 -2.203125 C 1.578125 -3.015625 2.046875 -3.484375 2.625 -3.484375 C 3.109375 -3.484375 3.421875 -3.15625 3.421875 -2.578125 C 3.421875 -2.46875 3.421875 -2.328125 3.390625 -2.203125 C 3.234375 -1.40625 2.734375 -0.890625 2.15625 -0.890625 Z M 2.15625 -0.890625 "/></g></g></g><g fill="#ffffee" fill-opacity="1"><g transform="translate(57.87581, 68.483156)"><g><path d="M 0.046875 0 L 0.796875 0 L 0.734375 0.3125 C 0.671875 0.71875 0.40625 0.953125 -0.078125 0.953125 L -0.15625 0.953125 L -0.265625 1.5 L -0.203125 1.5 C 0.671875 1.5 1.203125 1.09375 1.375 0.296875 L 1.703125 -1.28125 L 0.3125 -1.28125 Z M 0.046875 0 "/></g></g></g><g fill="#ffffee" fill-opacity="1"><g transform="translate(60.28503, 68.483156)"><g/></g></g><g fill="#ffffee" fill-opacity="1"><g transform="translate(62.413315, 68.483156)"><g><path d="M 3.359375 -4.5 C 2.796875 -4.5 2.40625 -4.28125 2.046875 -3.8125 L 2.15625 -4.390625 L 0.984375 -4.390625 L 0.046875 0 L 1.25 0 L 1.765625 -2.421875 C 1.921875 -3.046875 2.328125 -3.421875 2.828125 -3.421875 C 3.15625 -3.421875 3.34375 -3.265625 3.34375 -2.9375 C 3.34375 -2.828125 3.328125 -2.71875 3.296875 -2.609375 L 2.734375 0 L 3.9375 0 L 4.546875 -2.828125 C 4.578125 -2.984375 4.59375 -3.140625 4.59375 -3.28125 C 4.59375 -4.015625 4.15625 -4.5 3.359375 -4.5 Z M 3.359375 -4.5 "/></g></g></g><g fill="#ffffee" fill-opacity="1"><g transform="translate(67.33391, 68.483156)"><g><path d="M 2.1875 0.140625 C 3.5625 0.140625 4.484375 -0.734375 4.75 -2.09375 C 4.78125 -2.28125 4.796875 -2.46875 4.796875 -2.625 C 4.796875 -3.734375 4.078125 -4.5 2.890625 -4.5 C 1.484375 -4.5 0.53125 -3.546875 0.296875 -2.265625 C 0.25 -2.09375 0.234375 -1.921875 0.234375 -1.75 C 0.234375 -0.640625 1 0.140625 2.1875 0.140625 Z M 2.25 -0.796875 C 1.6875 -0.796875 1.390625 -1.171875 1.390625 -1.765625 C 1.390625 -1.90625 1.40625 -2.03125 1.4375 -2.1875 C 1.578125 -3.015625 2.109375 -3.5625 2.78125 -3.5625 C 3.328125 -3.5625 3.625 -3.171875 3.625 -2.53125 C 3.625 -2.421875 3.625 -2.3125 3.609375 -2.1875 C 3.46875 -1.34375 2.953125 -0.796875 2.25 -0.796875 Z M 2.25 -0.796875 "/></g></g></g><g fill="#ffffee" fill-opacity="1"><g transform="translate(72.37369, 68.483156)"><g><path d="M 2.21875 -3.53125 L 3.015625 -3.515625 L 3.203125 -4.390625 L 2.390625 -4.375 L 2.484375 -4.78125 L 2.6875 -5.75 L 1.484375 -5.75 L 1.28125 -4.765625 L 1.1875 -4.375 L 0.59375 -4.390625 L 0.40625 -3.515625 L 1.015625 -3.53125 L 0.9375 -3.1875 L 0.515625 -1.234375 C 0.5 -1.109375 0.484375 -1 0.484375 -0.890625 C 0.484375 -0.328125 0.828125 0 1.578125 0 L 2.28125 0 L 2.484375 -0.96875 L 2.078125 -0.96875 C 1.84375 -0.96875 1.734375 -1.03125 1.734375 -1.21875 C 1.734375 -1.265625 1.75 -1.328125 1.765625 -1.453125 L 2.140625 -3.15625 Z M 2.21875 -3.53125 "/></g></g></g><g fill="#ffffee" fill-opacity="1"><g transform="translate(75.370317, 68.483156)"><g/></g></g><g fill="#ffffee" fill-opacity="1"><g transform="translate(77.498603, 68.483156)"><g><path d="M 3.6875 -3.828125 C 3.453125 -4.234375 3.046875 -4.5 2.484375 -4.5 C 1.40625 -4.5 0.578125 -3.65625 0.3125 -2.34375 C 0.25 -2.09375 0.234375 -1.859375 0.234375 -1.640625 C 0.234375 -0.515625 0.84375 0.140625 1.734375 0.140625 C 2.28125 0.140625 2.71875 -0.078125 3.078125 -0.515625 L 3 0 L 4.078125 0 L 5.359375 -6.0625 L 4.171875 -6.0625 Z M 2.15625 -0.890625 C 1.671875 -0.890625 1.390625 -1.265625 1.390625 -1.8125 C 1.390625 -1.953125 1.40625 -2.0625 1.4375 -2.203125 C 1.578125 -3.015625 2.046875 -3.484375 2.625 -3.484375 C 3.109375 -3.484375 3.421875 -3.15625 3.421875 -2.578125 C 3.421875 -2.46875 3.421875 -2.328125 3.390625 -2.203125 C 3.234375 -1.40625 2.734375 -0.890625 2.15625 -0.890625 Z M 2.15625 -0.890625 "/></g></g></g><g fill="#ffffee" fill-opacity="1"><g transform="translate(82.546892, 68.483156)"><g><path d="M 2.3125 -4.96875 L 2.53125 -6.0625 L 1.34375 -6.0625 L 1.109375 -4.96875 Z M 1.25 0 L 2.1875 -4.390625 L 0.984375 -4.390625 L 0.046875 0 Z M 1.25 0 "/></g></g></g><g fill="#ffffee" fill-opacity="1"><g transform="translate(84.768818, 68.483156)"><g><path d="M 1.984375 0.15625 C 3.203125 0.15625 4.09375 -0.296875 4.09375 -1.390625 C 4.09375 -1.984375 3.71875 -2.40625 2.90625 -2.578125 L 2.21875 -2.734375 C 1.90625 -2.796875 1.765625 -2.953125 1.765625 -3.15625 C 1.765625 -3.484375 2.0625 -3.671875 2.5 -3.671875 C 2.953125 -3.671875 3.21875 -3.453125 3.21875 -3.0625 L 4.28125 -3.09375 C 4.28125 -3.9375 3.671875 -4.5 2.578125 -4.5 C 1.46875 -4.5 0.625 -4 0.625 -2.96875 C 0.625 -2.40625 1 -1.953125 1.71875 -1.78125 L 2.4375 -1.59375 C 2.78125 -1.515625 2.9375 -1.40625 2.9375 -1.171875 C 2.9375 -0.84375 2.625 -0.671875 2.09375 -0.671875 C 1.546875 -0.671875 1.265625 -0.921875 1.265625 -1.359375 L 0.171875 -1.3125 C 0.171875 -0.390625 0.78125 0.15625 1.984375 0.15625 Z M 1.984375 0.15625 "/></g></g></g><g fill="#ffffee" fill-opacity="1"><g transform="translate(89.365916, 68.483156)"><g><path d="M 2.21875 -3.53125 L 3.015625 -3.515625 L 3.203125 -4.390625 L 2.390625 -4.375 L 2.484375 -4.78125 L 2.6875 -5.75 L 1.484375 -5.75 L 1.28125 -4.765625 L 1.1875 -4.375 L 0.59375 -4.390625 L 0.40625 -3.515625 L 1.015625 -3.53125 L 0.9375 -3.1875 L 0.515625 -1.234375 C 0.5 -1.109375 0.484375 -1 0.484375 -0.890625 C 0.484375 -0.328125 0.828125 0 1.578125 0 L 2.28125 0 L 2.484375 -0.96875 L 2.078125 -0.96875 C 1.84375 -0.96875 1.734375 -1.03125 1.734375 -1.21875 C 1.734375 -1.265625 1.75 -1.328125 1.765625 -1.453125 L 2.140625 -3.15625 Z M 2.21875 -3.53125 "/></g></g></g><g fill="#ffffee" fill-opacity="1"><g transform="translate(92.362542, 68.483156)"><g><path d="M 3.140625 -4.515625 C 2.6875 -4.515625 2.3125 -4.265625 2.015625 -3.8125 L 2.125 -4.390625 L 0.984375 -4.390625 L 0.046875 0 L 1.25 0 L 1.71875 -2.21875 C 1.921875 -2.984375 2.359375 -3.375 3.046875 -3.375 C 3.140625 -3.375 3.21875 -3.359375 3.296875 -3.34375 L 3.53125 -4.453125 C 3.421875 -4.5 3.28125 -4.515625 3.140625 -4.515625 Z M 3.140625 -4.515625 "/></g></g></g><g fill="#ffffee" fill-opacity="1"><g transform="translate(95.759288, 68.483156)"><g><path d="M 2.796875 -4.5 C 1.578125 -4.5 0.90625 -4.0625 0.65625 -3.09375 L 1.75 -3.0625 C 1.890625 -3.484375 2.140625 -3.640625 2.640625 -3.640625 C 3.046875 -3.640625 3.265625 -3.515625 3.265625 -3.203125 C 3.265625 -3.171875 3.265625 -3.140625 3.25 -3 L 3.203125 -2.8125 L 1.640625 -2.53125 C 0.6875 -2.375 0 -1.921875 0 -1.015625 C 0 -0.328125 0.546875 0.125 1.390625 0.125 C 1.96875 0.125 2.46875 -0.109375 2.8125 -0.5 L 2.8125 0 L 3.9375 0 C 3.90625 -0.09375 3.890625 -0.203125 3.890625 -0.328125 C 3.890625 -0.5 3.90625 -0.6875 3.953125 -0.921875 L 4.375 -2.859375 C 4.40625 -3.015625 4.4375 -3.1875 4.4375 -3.3125 C 4.4375 -4.078125 3.859375 -4.5 2.796875 -4.5 Z M 1.84375 -0.765625 C 1.390625 -0.765625 1.21875 -0.9375 1.21875 -1.203125 C 1.21875 -1.546875 1.453125 -1.75 1.90625 -1.84375 L 3.0625 -2.0625 L 2.953125 -1.5625 C 2.765625 -1.03125 2.328125 -0.765625 1.84375 -0.765625 Z M 1.84375 -0.765625 "/></g></g></g><g fill="#ffffee" fill-opacity="1"><g transform="translate(100.501105, 68.483156)"><g><path d="M 2.0625 0.140625 C 3.109375 0.140625 3.921875 -0.46875 4.28125 -1.515625 L 3.078125 -1.515625 C 2.859375 -1.03125 2.53125 -0.796875 2.109375 -0.796875 C 1.625 -0.796875 1.375 -1.109375 1.375 -1.6875 C 1.375 -1.828125 1.390625 -2 1.4375 -2.1875 C 1.59375 -3.078125 2.09375 -3.5625 2.65625 -3.5625 C 3.125 -3.5625 3.34375 -3.328125 3.375 -2.859375 L 4.53125 -2.859375 C 4.53125 -3.84375 3.953125 -4.5 2.75 -4.5 C 1.484375 -4.5 0.546875 -3.671875 0.296875 -2.265625 C 0.25 -2.046875 0.234375 -1.84375 0.234375 -1.65625 C 0.234375 -0.578125 0.890625 0.140625 2.0625 0.140625 Z M 2.0625 0.140625 "/></g></g></g><g fill="#ffffee" fill-opacity="1"><g transform="translate(105.166304, 68.483156)"><g><path d="M 2.21875 -3.53125 L 3.015625 -3.515625 L 3.203125 -4.390625 L 2.390625 -4.375 L 2.484375 -4.78125 L 2.6875 -5.75 L 1.484375 -5.75 L 1.28125 -4.765625 L 1.1875 -4.375 L 0.59375 -4.390625 L 0.40625 -3.515625 L 1.015625 -3.53125 L 0.9375 -3.1875 L 0.515625 -1.234375 C 0.5 -1.109375 0.484375 -1 0.484375 -0.890625 C 0.484375 -0.328125 0.828125 0 1.578125 0 L 2.28125 0 L 2.484375 -0.96875 L 2.078125 -0.96875 C 1.84375 -0.96875 1.734375 -1.03125 1.734375 -1.21875 C 1.734375 -1.265625 1.75 -1.328125 1.765625 -1.453125 L 2.140625 -3.15625 Z M 2.21875 -3.53125 "/></g></g></g><g fill="#ffffee" fill-opacity="1"><g transform="translate(108.162931, 68.483156)"><g><path d="M 4.609375 -1.84375 C 4.6875 -2.140625 4.71875 -2.421875 4.71875 -2.671875 C 4.71875 -3.875 3.9375 -4.5 2.8125 -4.5 C 1.53125 -4.5 0.609375 -3.671875 0.3125 -2.390625 C 0.265625 -2.171875 0.25 -1.953125 0.25 -1.765625 C 0.25 -0.6875 0.921875 0.140625 2.1875 0.140625 C 3.171875 0.140625 3.921875 -0.3125 4.375 -1.28125 L 3.203125 -1.359375 C 2.96875 -0.96875 2.671875 -0.796875 2.25 -0.796875 C 1.703125 -0.796875 1.390625 -1.125 1.390625 -1.671875 C 1.390625 -1.734375 1.390625 -1.78125 1.40625 -1.84375 Z M 2.734375 -3.625 C 3.234375 -3.625 3.546875 -3.328125 3.546875 -2.8125 C 3.546875 -2.765625 3.546875 -2.703125 3.546875 -2.65625 L 1.5625 -2.65625 C 1.75 -3.265625 2.1875 -3.625 2.734375 -3.625 Z M 2.734375 -3.625 "/></g></g></g><g fill="#ffffee" fill-opacity="1"><g transform="translate(113.126088, 68.483156)"><g><path d="M 3.6875 -3.828125 C 3.453125 -4.234375 3.046875 -4.5 2.484375 -4.5 C 1.40625 -4.5 0.578125 -3.65625 0.3125 -2.34375 C 0.25 -2.09375 0.234375 -1.859375 0.234375 -1.640625 C 0.234375 -0.515625 0.84375 0.140625 1.734375 0.140625 C 2.28125 0.140625 2.71875 -0.078125 3.078125 -0.515625 L 3 0 L 4.078125 0 L 5.359375 -6.0625 L 4.171875 -6.0625 Z M 2.15625 -0.890625 C 1.671875 -0.890625 1.390625 -1.265625 1.390625 -1.8125 C 1.390625 -1.953125 1.40625 -2.0625 1.4375 -2.203125 C 1.578125 -3.015625 2.046875 -3.484375 2.625 -3.484375 C 3.109375 -3.484375 3.421875 -3.15625 3.421875 -2.578125 C 3.421875 -2.46875 3.421875 -2.328125 3.390625 -2.203125 C 3.234375 -1.40625 2.734375 -0.890625 2.15625 -0.890625 Z M 2.15625 -0.890625 "/></g></g></g></svg>